/* XPM */
static char * actions_arrow_up_icon_24_xpm[] = {
"24 24 135 2",
"  	c None",
". 	c #599659",
"+ 	c #1C6E1D",
"@ 	c #317132",
"# 	c #046506",
"$ 	c #075F08",
"% 	c #347834",
"& 	c #0D510D",
"* 	c #09640A",
"= 	c #025702",
"- 	c #368136",
"; 	c #368036",
"> 	c #0E5F0E",
", 	c #015801",
"' 	c #09730B",
") 	c #005100",
"! 	c #317F31",
"~ 	c #439043",
"{ 	c #338733",
"] 	c #106D10",
"^ 	c #006400",
"/ 	c #056C05",
"( 	c #07780A",
"_ 	c #257225",
": 	c #519E51",
"< 	c #409540",
"[ 	c #308E30",
"} 	c #107910",
"| 	c #007300",
"1 	c #007600",
"2 	c #097F0A",
"3 	c #057708",
"4 	c #186218",
"5 	c #5CA75C",
"6 	c #4EA14E",
"7 	c #3D9A3D",
"8 	c #2D942D",
"9 	c #118511",
"0 	c #008000",
"a 	c #008500",
"b 	c #008600",
"c 	c #0E8C0F",
"d 	c #017304",
"e 	c #0C560C",
"f 	c #62A962",
"g 	c #5BAB5B",
"h 	c #4BA44B",
"i 	c #3A9E3A",
"j 	c #2A9A2A",
"k 	c #119011",
"l 	c #008E00",
"m 	c #009300",
"n 	c #009500",
"o 	c #009400",
"p 	c #119313",
"q 	c #034E03",
"r 	c #60A360",
"s 	c #69B369",
"t 	c #58AC58",
"u 	c #48A648",
"v 	c #37A237",
"w 	c #26A026",
"x 	c #119A11",
"y 	c #009A00",
"z 	c #00A100",
"A 	c #00A400",
"B 	c #00A300",
"C 	c #039F03",
"D 	c #109213",
"E 	c #004C00",
"F 	c #539453",
"G 	c #76BC76",
"H 	c #66B366",
"I 	c #55AC55",
"J 	c #45A745",
"K 	c #34A534",
"L 	c #23A423",
"M 	c #12A312",
"N 	c #00A500",
"O 	c #00AE00",
"P 	c #00B300",
"Q 	c #00AC00",
"R 	c #08A409",
"S 	c #0C8A10",
"T 	c #3D803D",
"U 	c #85C685",
"V 	c #73BA73",
"W 	c #63B263",
"X 	c #52AC52",
"Y 	c #41A841",
"Z 	c #31A731",
"` 	c #20A720",
" .	c #12A912",
"..	c #00B900",
"+.	c #00C100",
"@.	c #00C200",
"#.	c #00AB00",
"$.	c #0FA010",
"%.	c #08820C",
"&.	c #2F712F",
"*.	c #90CD90",
"=.	c #81C381",
"-.	c #70B870",
";.	c #60B060",
">.	c #4FAB4F",
",.	c #3EA73E",
"'.	c #2EA72E",
").	c #1DA81D",
"!.	c #12AD12",
"~.	c #00CE00",
"{.	c #00D100",
"].	c #00C300",
"^.	c #00B100",
"/.	c #009F00",
"(.	c #199A1A",
"_.	c #087B09",
":.	c #568C56",
"<.	c #296F29",
"[.	c #246B24",
"}.	c #216F21",
"|.	c #1E741E",
"1.	c #1B7A1B",
"2.	c #198019",
"3.	c #188618",
"4.	c #178B18",
"5.	c #0B8C0C",
"6.	c #079109",
"7.	c #09980B",
"8.	c #0A9D0C",
"9.	c #0CA00F",
"0.	c #0E9E11",
"a.	c #0F9B13",
"b.	c #119815",
"c.	c #1F9A1D",
"d.	c #2A971E",
"                                                ",
"                                                ",
"                                                ",
"                                                ",
"                                                ",
"                      .                         ",
"                    + @ #                       ",
"                  $ % & *                       ",
"                = - ; > , '                     ",
"              ) ! ~ { ] ^ / (                   ",
"              _ : < [ } | 1 2 3                 ",
"            4 5 6 7 8 9 0 a b c d               ",
"          e f g h i j k l m n o p               ",
"        q r s t u v w x y z A B C D             ",
"      E F G H I J K L M N O P P Q R S           ",
"      T U V W X Y Z `  .O ..+.@...#.$.%.        ",
"    &.*.=.-.;.>.,.'.).!.P +.~.{.].^./.(._.      ",
"    :.<.[.}.|.1.2.3.4.5.6.7.8.9.0.a.b.c.d.      ",
"                                                ",
"                                                ",
"                                                ",
"                                                ",
"                                                ",
"                                                "};
