/* XPM */
static char *actions_speaker_icon[] = {
/* columns rows colors chars-per-pixel */
"24 24 152 2 ",
"   c None",
".  c #272927",
"X  c #2D2E2C",
"o  c #323435",
"O  c #363937",
"+  c #32383A",
"@  c #3C3E3B",
"#  c #545037",
"$  c #645F3F",
"%  c #736730",
"&  c #786E3E",
"*  c #7F7530",
"=  c #79703D",
"-  c #3B4041",
";  c #454846",
":  c #4B4D49",
">  c #494A47",
",  c #545342",
"<  c #4D4B52",
"1  c #4D5252",
"2  c #535756",
"3  c #5F5F56",
"4  c #55545C",
"5  c #58565F",
"6  c #5A5E5C",
"7  c #5F615D",
"8  c #7E744C",
"9  c #726F55",
"0  c #7D7859",
"q  c #5D5B64",
"w  c #5E5E69",
"e  c #615E67",
"r  c #65626C",
"t  c #686568",
"y  c #666967",
"u  c #736F6C",
"i  c #736E66",
"p  c #6D706D",
"a  c #777369",
"s  c #6A6771",
"d  c #6D6A74",
"f  c #6F6C78",
"g  c #726F7B",
"h  c #737672",
"j  c #74717D",
"k  c #8B7801",
"l  c #8D7922",
"z  c #847A44",
"x  c #857948",
"c  c #837D69",
"v  c #7E817D",
"b  c #9E871E",
"n  c #9E901E",
"m  c #A2880D",
"M  c #AE9800",
"N  c #B29602",
"B  c #BCA10D",
"V  c #9E8E31",
"C  c #92833E",
"Z  c #AF9729",
"A  c #B69F2B",
"S  c #A39136",
"D  c #BBAB2D",
"F  c #BAA121",
"G  c #BAA833",
"H  c #C8AE09",
"J  c #C2A806",
"K  c #CFB80B",
"L  c #CEB71A",
"P  c #D7BE13",
"I  c #D0B21A",
"U  c #D6BA22",
"Y  c #C8AE31",
"T  c #D4B930",
"R  c #DEC60A",
"E  c #DEC412",
"W  c #D5C11D",
"Q  c #DBC31C",
"!  c #DFCA1A",
"~  c #E1C80D",
"^  c #E8CE17",
"/  c #E5CD1A",
"(  c #E2C715",
")  c #EAD21A",
"_  c #EDD516",
"`  c #F1DA1C",
"'  c #DAC622",
"]  c #DECB34",
"[  c #E5CE2C",
"{  c #ECD82D",
"}  c #F2DC23",
"|  c #F5DF2A",
" . c #EBD734",
".. c #EED938",
"X. c #E7D335",
"o. c #F5E02E",
"O. c #F5E031",
"+. c #F7E33C",
"@. c #8A814D",
"#. c #958742",
"$. c #8C8356",
"%. c #958A57",
"&. c #AA9741",
"*. c #AA9F4D",
"=. c #A39954",
"-. c #BCAE43",
";. c #AFA457",
":. c #948C6E",
">. c #9B9262",
",. c #8F8771",
"<. c #8B8A78",
"1. c #A29A72",
"2. c #B5AD75",
"3. c #CAB442",
"4. c #C7B456",
"5. c #F9E643",
"6. c #7A7784",
"7. c #7C7A87",
"8. c #7E7B88",
"9. c #827E8C",
"0. c #85828E",
"q. c #8C8E89",
"w. c #878391",
"e. c #8C8996",
"r. c #8F8B99",
"t. c #898593",
"y. c #918E9B",
"u. c #96939F",
"i. c #9895A1",
"p. c #9C99A7",
"a. c #A19EAA",
"s. c #A7A4AF",
"d. c #AAA7B1",
"f. c #ACA9B4",
"g. c #A7A3B3",
"h. c #B1AEB7",
"j. c #B2AFB9",
"k. c #B4B1BB",
"l. c #C0BB9B",
"z. c #C1BDB2",
"x. c #C8C3A5",
"c. c #BAB5C3",
"v. c #BEBBC5",
"b. c #C0BEC7",
"n. c #C1BCC9",
"m. c #C6C4CC",
"M. c #C4C2C4",
"N. c #CDCBD2",
"B. c #D0CED5",
"V. c #D7D5DB",
"C. c #D2D0D6",
"Z. c #DDDCE1",
/* pixels */
"                                                ",
"                                                ",
"    5.5.+...[ { O.O.|                           ",
"  5.X.V x c ,.:.>.*.D L } `                     ",
"..+.& 0.r.e.e.p.h.k.m.k.2.D / `                 ",
"[ ] p g 6.9.e.y.s.k.M.N.V.Z.x.-./ _             ",
"' | d r j 9.0.e.u.s.k.v.N.Z.Z.Z.l.D _           ",
"N o.=.e s 6.9.0.r.i.s.j.v.m.N.C.B.M.;.!         ",
"  P / c e g 6.9.0.r.u.p.f.c.c.v.v.v.j.1.W       ",
"    ~ ' u e 6.6.0.j f 6.u.p.s.f.f.f.g.i.:.Q     ",
"    b R ' a r 6.j d 6.6.w r r.u.i.i.i.y.6.$.)   ",
"      C I E %.e f r.s.p.6.4 1 w.t.w.9.8.6.d G E ",
"        $.A Q G i 6.v.c.e.w o 6.6.7.7.6.6.q @.^ ",
"          <.#.3.U S u 8.6.w 4 6.6.6.f s e < z ^ ",
"          q.y 0 %.4.T Z x r q w w w q q < > L ! ",
"          <.p @ 7 9 z &.Y I F V l 8 & l n R K   ",
"            h p o X : 3 $ % l m N J H J M k     ",
"              y p 2 O . X @ ; : , #             ",
"                6 2 1 1 ; - +                   ",
"                                                ",
"                                                ",
"                                                ",
"                                                ",
"                                                "
};
