/* XPM */
static char * actions_arrow_down_icon_24_xpm[] = {
"24 24 138 2",
"  	c None",
". 	c #518551",
"+ 	c #4A854A",
"@ 	c #286F28",
"# 	c #256D25",
"$ 	c #217121",
"% 	c #1E771E",
"& 	c #1B7D1B",
"* 	c #1A831A",
"= 	c #188819",
"- 	c #188E19",
"; 	c #068D07",
"> 	c #079409",
", 	c #099A0B",
"' 	c #0A9F0D",
") 	c #0CA10F",
"! 	c #0E9E11",
"~ 	c #109B13",
"{ 	c #129715",
"] 	c #2A9E23",
"^ 	c #1F8714",
"/ 	c #4D8B4D",
"( 	c #8ECD8E",
"_ 	c #7DC07D",
": 	c #6CB66C",
"< 	c #5BAF5B",
"[ 	c #4BAA4B",
"} 	c #3AA73A",
"| 	c #2AA72A",
"1 	c #27AE27",
"2 	c #00A900",
"3 	c #00B700",
"4 	c #00C400",
"5 	c #00D000",
"6 	c #00CF00",
"7 	c #00BE00",
"8 	c #00AD00",
"9 	c #019B01",
"0 	c #1B971D",
"a 	c #004C00",
"b 	c #5F9E5F",
"c 	c #80C380",
"d 	c #6FB86F",
"e 	c #5FB05F",
"f 	c #4EAB4E",
"g 	c #3DA73D",
"h 	c #2DA72D",
"i 	c #29AD29",
"j 	c #00A500",
"k 	c #00B100",
"l 	c #00BC00",
"m 	c #00C200",
"n 	c #00C000",
"o 	c #00B600",
"p 	c #00A700",
"q 	c #169D17",
"r 	c #017605",
"s 	c #055005",
"t 	c #6CAC6C",
"u 	c #72BA72",
"v 	c #62B162",
"w 	c #51AB51",
"x 	c #40A740",
"y 	c #30A530",
"z 	c #2AA92A",
"A 	c #009E00",
"B 	c #00A800",
"C 	c #00AF00",
"D 	c #00B300",
"E 	c #0FA110",
"F 	c #057E09",
"G 	c #105910",
"H 	c #6DB16D",
"I 	c #65B165",
"J 	c #54AA54",
"K 	c #43A543",
"L 	c #33A133",
"M 	c #29A229",
"N 	c #049604",
"O 	c #009C00",
"P 	c #00A200",
"Q 	c #00A400",
"R 	c #099F0A",
"S 	c #0A860E",
"T 	c #1E671E",
"U 	c #67AF67",
"V 	c #57A957",
"W 	c #47A247",
"X 	c #369D36",
"Y 	c #299B29",
"Z 	c #068B06",
"` 	c #008F00",
" .	c #009400",
"..	c #009500",
"+.	c #049504",
"@.	c #0D8C10",
"#.	c #2E772E",
"$.	c #5BA75B",
"%.	c #4A9F4A",
"&.	c #399839",
"*.	c #2A932A",
"=.	c #068006",
"-.	c #008200",
";.	c #008500",
">.	c #008600",
",.	c #0F8B11",
"'.	c #004E00",
").	c #3A863A",
"!.	c #4D9C4D",
"~.	c #3C933C",
"{.	c #2C8C2C",
"].	c #067306",
"^.	c #007400",
"/.	c #007600",
"(.	c #0D820F",
"_.	c #016F03",
":.	c #035503",
"<.	c #3F8B40",
"[.	c #3F8E3F",
"}.	c #308530",
"|.	c #046504",
"1.	c #006500",
"2.	c #097209",
"3.	c #037205",
"4.	c #095F0A",
"5.	c #3D853D",
"6.	c #337E33",
"7.	c #025602",
"8.	c #055E05",
"9.	c #057108",
"0.	c #116712",
"a.	c #357735",
"b.	c #034903",
"c.	c #076B09",
"d.	c #307931",
"e.	c #1F6C21",
"f.	c #478748",
"g.	c #5E985F",
"                                                ",
"                                                ",
"                                                ",
"                                                ",
"                                                ",
"                                                ",
"    . + @ # $ % & * = - ; > , ' ) ! ~ { ] ^     ",
"      / ( _ : < [ } | 1 2 3 4 5 6 7 8 9 0       ",
"      a b c d e f g h i j k l m n o p q r       ",
"        s t u v w x y z A B C D k 2 E F         ",
"          G H I J K L M N O P Q P R S           ",
"            T U V W X Y Z `  ...+.@.            ",
"              #.$.%.&.*.=.-.;.>.,.              ",
"              '.).!.~.{.].^./.(._.              ",
"                :.<.[.}.|.1.2.3.                ",
"                  4.5.6.7.8.9.                  ",
"                    0.a.b.c.                    ",
"                      d.e.                      ",
"                      f.g.                      ",
"                                                ",
"                                                ",
"                                                ",
"                                                ",
"                                                "};
