/* XPM */
static char * arch_linux_icon_24_xpm[] = {
"24 24 146 2",
"  	c None",
". 	c #0B6EA1",
"+ 	c #066391",
"@ 	c #006194",
"# 	c #0D6B9B",
"$ 	c #6AA9CB",
"% 	c #82BAD6",
"& 	c #B8D9EA",
"* 	c #0B476A",
"= 	c #155E85",
"- 	c #A7D8EA",
"; 	c #7FD1E8",
"> 	c #4692BC",
", 	c #5EA5CA",
"' 	c #69CDE7",
") 	c #3FBCDE",
"! 	c #70B4D4",
"~ 	c #338DB8",
"{ 	c #19ADD6",
"] 	c #15AFD7",
"^ 	c #7BCDE5",
"/ 	c #2883B3",
"( 	c #00476C",
"_ 	c #0092C4",
": 	c #01ABD5",
"< 	c #59C8E4",
"[ 	c #4AA3CB",
"} 	c #025B8A",
"| 	c #2785B3",
"1 	c #01537F",
"2 	c #006EA4",
"3 	c #00A8D3",
"4 	c #1FB4DA",
"5 	c #81CEE5",
"6 	c #025788",
"7 	c #2B8CBB",
"8 	c #96E0F1",
"9 	c #5FB5D6",
"0 	c #2383B6",
"a 	c #14A1CE",
"b 	c #00A8D4",
"c 	c #5FCCE6",
"d 	c #3A96C1",
"e 	c #07557E",
"f 	c #69BDDC",
"g 	c #23B5DB",
"h 	c #50C4E2",
"i 	c #7FCEE6",
"j 	c #31BBDD",
"k 	c #15B0D8",
"l 	c #07547E",
"m 	c #2D8FBD",
"n 	c #4DC1E0",
"o 	c #00A7D4",
"p 	c #07ACD6",
"q 	c #20B6DB",
"r 	c #04ADD7",
"s 	c #00AAD5",
"t 	c #59C5E2",
"u 	c #0D76AB",
"v 	c #4EB8DA",
"w 	c #19B2D9",
"x 	c #00A9D5",
"y 	c #0097C8",
"z 	c #0071A3",
"A 	c #0072A3",
"B 	c #0098C8",
"C 	c #00A9D4",
"D 	c #1CB5DA",
"E 	c #4DB4D7",
"F 	c #0A70A4",
"G 	c #2893C3",
"H 	c #3FBFDF",
"I 	c #05ACD6",
"J 	c #0096C7",
"K 	c #005781",
"L 	c #005782",
"M 	c #07ADD7",
"N 	c #40BFDF",
"O 	c #218CBE",
"P 	c #01669A",
"Q 	c #44B9DB",
"R 	c #18B3DA",
"S 	c #00ADD7",
"T 	c #006494",
"U 	c #1FB6DB",
"V 	c #3DB1D6",
"W 	c #005886",
"X 	c #2498C4",
"Y 	c #2EBBDE",
"Z 	c #009CCA",
"` 	c #004971",
" .	c #009CCB",
"..	c #30B4D8",
"+.	c #0B7DB3",
"@.	c #0873A6",
"#.	c #30B1D7",
"$.	c #05ABD6",
"%.	c #00ABD6",
"&.	c #008FC2",
"*.	c #018FC3",
"=.	c #039ECD",
"-.	c #017BB4",
";.	c #006192",
">.	c #1896C5",
",.	c #1AB3DA",
"'.	c #00ACD7",
").	c #018BBF",
"!.	c #028CC0",
"~.	c #17B3DA",
"{.	c #1C9FCB",
"].	c #02699E",
"^.	c #0883B8",
"/.	c #16B0D7",
"(.	c #00A7D3",
"_.	c #0080B7",
":.	c #007FB7",
"<.	c #00A7D2",
"[.	c #0EB0D7",
"}.	c #19AFD7",
"|.	c #0A8CBF",
"1.	c #0172A8",
"2.	c #016598",
"3.	c #0B9FCD",
"4.	c #08A3D0",
"5.	c #0093C5",
"6.	c #0183B7",
"7.	c #0070A0",
"8.	c #005E8D",
"9.	c #015E8D",
"0.	c #00709F",
"a.	c #0083B6",
"b.	c #0596C7",
"c.	c #0CA3CF",
"d.	c #099BCA",
"e.	c #015F8E",
"f.	c #0070A9",
"g.	c #0384BA",
"h.	c #016899",
"i.	c #00344F",
"j.	c #002B41",
"k.	c #016999",
"l.	c #006DA4",
"m.	c #00679C",
"n.	c #005885",
"o.	c #00689D",
"                        .                       ",
"                      + @                       ",
"                      # $                       ",
"                      % & *                     ",
"                    = - ; >                     ",
"                    , ' ) !                     ",
"                    ~ { ] ^ /                   ",
"                    ( _ : < [                   ",
"                } | 1 2 3 4 5 6                 ",
"                7 8 9 0 a b c d                 ",
"              e f g h i j b k f l               ",
"              m n o p q r s b t m               ",
"            u v w x y z A B C D E F             ",
"            G H I J K     L J M N O             ",
"          P Q R S T         T S U V W           ",
"          X Y s Z `         `  .b ..+.          ",
"        @.#.$.%.&.            *.=.-.;.          ",
"        >.,.s '.).            !.~.{.].          ",
"      ^./.r C (._.            :.<.[.}.|.1.      ",
"    2.3.4.5.6.7.8.            9.0.a.b.c.d.e.    ",
"    f.g.h.i.                        j.k.g.l.    ",
"  m.n.                                    n.o.  ",
"                                                ",
"                                                "};
