/* XPM */
static char * battery_full_icon_24_xpm[] = {
"24 24 178 2",
"  	c None",
". 	c #A5A6A9",
"+ 	c #9A9C9E",
"@ 	c #A5A7A9",
"# 	c #808865",
"$ 	c #7D8075",
"% 	c #8B907B",
"& 	c #A2A78D",
"* 	c #CECFD4",
"= 	c #D7D8D9",
"- 	c #D2D4D5",
"; 	c #B9BBC0",
"> 	c #989D82",
", 	c #818670",
"' 	c #6E7265",
") 	c #6D7455",
"! 	c #737965",
"~ 	c #B4BF84",
"{ 	c #B8C969",
"] 	c #A8C03B",
"^ 	c #AEC253",
"/ 	c #C0BFCD",
"( 	c #D3D3D9",
"_ 	c #BCBDC3",
": 	c #8D8D9A",
"< 	c #A3B649",
"[ 	c #A9C13B",
"} 	c #B6C868",
"| 	c #ADB87E",
"1 	c #5C604E",
"2 	c #504F5B",
"3 	c #BBDB3D",
"4 	c #A5C91B",
"5 	c #A2C713",
"6 	c #A1C41F",
"7 	c #B4C288",
"8 	c #BAC5A2",
"9 	c #A2AD8B",
"0 	c #92A166",
"a 	c #9BBE18",
"b 	c #A1C513",
"c 	c #A3C51C",
"d 	c #B6D143",
"e 	c #393842",
"f 	c #4F4E5A",
"g 	c #D3EA77",
"h 	c #BDDD47",
"i 	c #C5E357",
"j 	c #C8E55D",
"k 	c #C7E364",
"l 	c #C5E269",
"m 	c #C4E167",
"n 	c #C5E164",
"o 	c #C2DC5E",
"p 	c #B9D159",
"q 	c #ACC349",
"r 	c #C8D77B",
"s 	c #383841",
"t 	c #CAE662",
"u 	c #A4CF08",
"v 	c #B0D918",
"w 	c #B6DE28",
"x 	c #B3D92F",
"y 	c #B1D635",
"z 	c #ADD033",
"A 	c #A8C92F",
"B 	c #A2C228",
"C 	c #98B618",
"D 	c #8CAA08",
"E 	c #BDCF65",
"F 	c #504E5B",
"G 	c #C7E35B",
"H 	c #A2CE00",
"I 	c #A9D600",
"J 	c #ABD900",
"K 	c #A6D200",
"L 	c #9DC500",
"M 	c #99BF00",
"N 	c #94B800",
"O 	c #90B100",
"P 	c #89A800",
"Q 	c #BACC5E",
"R 	c #C5E255",
"S 	c #A9D700",
"T 	c #9EC600",
"U 	c #99C000",
"V 	c #95B900",
"W 	c #8AA800",
"X 	c #B7CA58",
"Y 	c #393942",
"Z 	c #504E5C",
"` 	c #C2E04F",
" .	c #A3CE00",
"..	c #AAD700",
"+.	c #A7D300",
"@.	c #9AC000",
"#.	c #B4C851",
"$.	c #393943",
"%.	c #4F4E5C",
"&.	c #BFDF47",
"*.	c #B1C549",
"=.	c #393843",
"-.	c #4E4C5B",
";.	c #BEDE41",
">.	c #ADC343",
",.	c #373640",
"'.	c #BBDD3B",
").	c #8AA900",
"!.	c #ABC23D",
"~.	c #36353F",
"{.	c #4E4D5B",
"].	c #B7DB33",
"^.	c #A3CF00",
"/.	c #8BA900",
"(.	c #A8BE36",
"_.	c #363540",
":.	c #4E4D5C",
"<.	c #B5D92C",
"[.	c #A5BC2E",
"}.	c #4F4D5C",
"|.	c #B3D825",
"1.	c #A4CF00",
"2.	c #91B100",
"3.	c #A2BA28",
"4.	c #363641",
"5.	c #4F4D5D",
"6.	c #B0D61E",
"7.	c #9DB721",
"8.	c #363642",
"9.	c #ADD517",
"0.	c #8CA900",
"a.	c #9BB41A",
"b.	c #373642",
"c.	c #4F4E5E",
"d.	c #ABD311",
"e.	c #8CAA00",
"f.	c #98B113",
"g.	c #A9D209",
"h.	c #94AE0C",
"i.	c #383643",
"j.	c #504E5E",
"k.	c #A7D102",
"l.	c #A4D000",
"m.	c #92AD04",
"n.	c #383743",
"o.	c #52505E",
"p.	c #9EC50C",
"q.	c #A8D500",
"r.	c #ACDA00",
"s.	c #ACDB00",
"t.	c #A7D400",
"u.	c #9FC800",
"v.	c #9AC200",
"w.	c #97BB00",
"x.	c #92B400",
"y.	c #8FAF00",
"z.	c #89A10A",
"A.	c #3B3B45",
"B.	c #55555B",
"C.	c #6E784B",
"D.	c #8AA231",
"E.	c #9CBF1E",
"F.	c #9ABE1D",
"G.	c #96B91D",
"H.	c #92B31C",
"I.	c #8EAE1B",
"J.	c #88A51A",
"K.	c #75872A",
"L.	c #5B633D",
"M.	c #424247",
"N.	c #2E2D35",
"O.	c #31303C",
"P.	c #312F3B",
"Q.	c #302E3A",
"R.	c #2E2D39",
"S.	c #2D2C37",
"T.	c #2D2C35",
"U.	c #27262E",
"                    . + + @                     ",
"            # $ % & * = - ; > , ' )             ",
"          ! ~ { ] ^ / ( _ : < [ } | 1           ",
"          2 3 4 5 6 7 8 9 0 a b c d e           ",
"          f g h i j k l m n o p q r s           ",
"          f t u v w x y z A B C D E s           ",
"          F G H I J K H L M N O P Q e           ",
"          F R H S J K H T U V O W X Y           ",
"          Z `  ...J +.H T @.V O W #.$.          ",
"          %.&. .S J K H T U V O W *.=.          ",
"          -.;. .S J K H T U V O W >.,.          ",
"          -.'. .S J K H T U V O ).!.~.          ",
"          {.].^...J +.H T @.V O /.(._.          ",
"          :.<. .S J K H T U V O /.[._.          ",
"          }.|.1...J +.H T @.V 2./.3.4.          ",
"          5.6. .S J K H T U V 2./.7.8.          ",
"          5.9.1.S J K H T U V 2.0.a.b.          ",
"          c.d.1...J +.H T @.V 2.e.f.b.          ",
"          c.g.1.S J K H T U V 2.e.h.i.          ",
"          j.k.l...J K H T U V 2.e.m.n.          ",
"          o.p.q.r.s.t.^.u.v.w.x.y.z.A.          ",
"            B.C.D.E.F.G.H.I.J.K.L.M.            ",
"                N.O.P.Q.R.S.T.U.                ",
"                                                "};
