/* XPM */
static char * battery_plug_icon_24_xpm[] = {
"24 24 260 2",
"  	c None",
". 	c #A5A6A9",
"+ 	c #9A9C9E",
"@ 	c #A5A7A9",
"# 	c #808865",
"$ 	c #7D8075",
"% 	c #8B907B",
"& 	c #A2A78D",
"* 	c #CECFD4",
"= 	c #D7D8D9",
"- 	c #D2D4D5",
"; 	c #B9BBC0",
"> 	c #989D82",
", 	c #818670",
"' 	c #6E7265",
") 	c #6D7455",
"! 	c #737965",
"~ 	c #B4BF84",
"{ 	c #B8C969",
"] 	c #A8C03B",
"^ 	c #AEC253",
"/ 	c #C0BFCD",
"( 	c #D3D3D9",
"_ 	c #BCBDC3",
": 	c #8D8D9A",
"< 	c #A3B649",
"[ 	c #A9C13B",
"} 	c #B6C868",
"| 	c #ADB87E",
"1 	c #5B5F4E",
"2 	c #504F5B",
"3 	c #BBDB3D",
"4 	c #A5C91B",
"5 	c #A2C713",
"6 	c #A1C41F",
"7 	c #B4C288",
"8 	c #BAC5A2",
"9 	c #A2AD8B",
"0 	c #92A166",
"a 	c #9BBE18",
"b 	c #A1C513",
"c 	c #A3C51C",
"d 	c #B6D143",
"e 	c #393842",
"f 	c #4F4E5A",
"g 	c #D3EA77",
"h 	c #BDDD47",
"i 	c #C5E357",
"j 	c #C8E55D",
"k 	c #C7E364",
"l 	c #C5E269",
"m 	c #C4E167",
"n 	c #C5E164",
"o 	c #C2DC5E",
"p 	c #B9D159",
"q 	c #ACC349",
"r 	c #C8D77B",
"s 	c #383841",
"t 	c #CAE662",
"u 	c #A4CF08",
"v 	c #B0D918",
"w 	c #B6DE28",
"x 	c #B3D92F",
"y 	c #B1D635",
"z 	c #ADD033",
"A 	c #A8C92F",
"B 	c #A2C228",
"C 	c #98B618",
"D 	c #8CAA08",
"E 	c #BDCF65",
"F 	c #504E5B",
"G 	c #C7E35B",
"H 	c #A2CE00",
"I 	c #A9D600",
"J 	c #ABD900",
"K 	c #A6D300",
"L 	c #9DC600",
"M 	c #99BF00",
"N 	c #95B800",
"O 	c #90B100",
"P 	c #89A800",
"Q 	c #BACC5E",
"R 	c #C5E255",
"S 	c #AAD700",
"T 	c #ADDB00",
"U 	c #A9D700",
"V 	c #A4D100",
"W 	c #9FC900",
"X 	c #9CC400",
"Y 	c #97BB00",
"Z 	c #8AA800",
"` 	c #B7CA58",
" .	c #393942",
"..	c #504E5C",
"+.	c #C2E04F",
"@.	c #A3CE00",
"#.	c #A0C718",
"$.	c #6E745E",
"%.	c #98BC17",
"&.	c #93B413",
"*.	c #5D614D",
"=.	c #89A712",
"-.	c #91B200",
";.	c #B4C851",
">.	c #393943",
",.	c #4F4E5C",
"'.	c #BFDF47",
").	c #ABD800",
"!.	c #9EC31E",
"~.	c #5E5977",
"{.	c #96B91C",
"].	c #90B219",
"^.	c #4B4662",
"/.	c #87A317",
"(.	c #91B300",
"_.	c #B1C549",
":.	c #393843",
"<.	c #4E4C5B",
"[.	c #BEDE41",
"}.	c #A3CF00",
"|.	c #A1C71D",
"1.	c #5F5B74",
"2.	c #99BD1C",
"3.	c #93B618",
"4.	c #4D495F",
"5.	c #8AA717",
"6.	c #94B600",
"7.	c #8BA900",
"8.	c #ADC343",
"9.	c #373640",
"0.	c #BBDD3B",
"a.	c #A5D200",
"b.	c #86974E",
"c.	c #767E62",
"d.	c #63616E",
"e.	c #6C7356",
"f.	c #656D50",
"g.	c #514F5B",
"h.	c #5A6047",
"i.	c #626E31",
"j.	c #8DAC00",
"k.	c #ABC23D",
"l.	c #36353F",
"m.	c #4E4D5B",
"n.	c #B8DB33",
"o.	c #A5D300",
"p.	c #889A4D",
"q.	c #696875",
"r.	c #66666A",
"s.	c #606064",
"t.	c #595A5D",
"u.	c #545357",
"v.	c #4B4A54",
"w.	c #647131",
"x.	c #8EAD00",
"y.	c #A8BE36",
"z.	c #363540",
"A.	c #4E4D5C",
"B.	c #B6D92C",
"C.	c #A4D000",
"D.	c #B1E200",
"E.	c #676578",
"F.	c #66656A",
"G.	c #616164",
"H.	c #595A5C",
"I.	c #535357",
"J.	c #494756",
"K.	c #98BC00",
"L.	c #8CAB00",
"M.	c #A5BC2E",
"N.	c #4F4D5C",
"O.	c #B3D825",
"P.	c #AFE000",
"Q.	c #676479",
"R.	c #5A5A5C",
"S.	c #484657",
"T.	c #97BA00",
"U.	c #8CAA00",
"V.	c #A2BA28",
"W.	c #363641",
"X.	c #4F4D5D",
"Y.	c #B0D61E",
"Z.	c #A4CF00",
"`.	c #AEDE00",
" +	c #6A6A72",
".+	c #64646C",
"++	c #525158",
"@+	c #4D4C52",
"#+	c #96B800",
"$+	c #9DB721",
"%+	c #363642",
"&+	c #ADD517",
"*+	c #ACDA00",
"=+	c #8FA934",
"-+	c #686A66",
";+	c #5F5D67",
">+	c #57575F",
",+	c #565754",
"'+	c #768A26",
")+	c #93B500",
"!+	c #9BB41A",
"~+	c #373642",
"{+	c #4F4E5E",
"]+	c #ABD311",
"^+	c #ABD700",
"/+	c #ABDA04",
"(+	c #9EC417",
"_+	c #6B7157",
":+	c #646A52",
"<+	c #90B213",
"[+	c #96BA03",
"}+	c #98B113",
"|+	c #A9D209",
"1+	c #788842",
"2+	c #72823E",
"3+	c #9DC400",
"4+	c #96B900",
"5+	c #91B100",
"6+	c #94AE0C",
"7+	c #383643",
"8+	c #504E5E",
"9+	c #A7D102",
"0+	c #A7D300",
"a+	c #A5D100",
"b+	c #A0CA00",
"c+	c #9AC100",
"d+	c #95B900",
"e+	c #92AD04",
"f+	c #383743",
"g+	c #52505E",
"h+	c #9EC50C",
"i+	c #A8D500",
"j+	c #ACDB00",
"k+	c #A7D400",
"l+	c #9FC800",
"m+	c #9AC200",
"n+	c #92B400",
"o+	c #8FAF00",
"p+	c #89A10A",
"q+	c #3B3B45",
"r+	c #55555B",
"s+	c #6E784B",
"t+	c #8AA231",
"u+	c #9CBF1E",
"v+	c #9ABE1D",
"w+	c #96B91D",
"x+	c #92B31C",
"y+	c #8EAE1B",
"z+	c #88A51A",
"A+	c #75872A",
"B+	c #5B633D",
"C+	c #424247",
"D+	c #2E2D35",
"E+	c #31303C",
"F+	c #312F3B",
"G+	c #302E3A",
"H+	c #2E2D39",
"I+	c #2D2C37",
"J+	c #2D2C35",
"K+	c #27262E",
"                    . + + @                     ",
"            # $ % & * = - ; > , ' )             ",
"          ! ~ { ] ^ / ( _ : < [ } | 1           ",
"          2 3 4 5 6 7 8 9 0 a b c d e           ",
"          f g h i j k l m n o p q r s           ",
"          f t u v w x y z A B C D E s           ",
"          F G H I J K H L M N O P Q e           ",
"          F R H S T U V W X Y O Z `  .          ",
"          ..+.@.S #.$.%.&.*.=.-.Z ;.>.          ",
"          ,.'.@.).!.~.{.].^./.(.Z _.:.          ",
"          <.[.}.T |.1.2.3.4.5.6.7.8.9.          ",
"          <.0.a.b.c.d.e.f.g.h.i.j.k.l.          ",
"          m.n.o.p.q.r.s.t.u.v.w.x.y.z.          ",
"          A.B.C.D.E.F.G.H.I.J.K.L.M.z.          ",
"          N.O.C.P.Q.r.G.R.u.S.T.U.V.W.          ",
"          X.Y.Z.`. +.+s.H.++@+#+U.$+%+          ",
"          X.&+Z.*+=+-+;+>+,+'+)+U.!+~+          ",
"          {+]+Z.^+/+(+_+:+<+[+-.U.}+~+          ",
"          {+|+Z.U *+S 1+2+3+4+5+U.6+7+          ",
"          8+9+C.S J 0+a+b+c+d+5+U.e+f+          ",
"          g+h+i+*+j+k+}.l+m+Y n+o+p+q+          ",
"            r+s+t+u+v+w+x+y+z+A+B+C+            ",
"                D+E+F+G+H+I+J+K+                ",
"                                                "};
