/* XPM */
static char * beer_icon_24_xpm[] = {
"24 24 181 2",
"  	c None",
". 	c #BEBEBE",
"+ 	c #C9C9C9",
"@ 	c #CCCDCD",
"# 	c #CDCDCD",
"$ 	c #CCCCCC",
"% 	c #D2D3D3",
"& 	c #D9DADA",
"* 	c #DDDEDE",
"= 	c #DFE0E0",
"- 	c #DFE0E1",
"; 	c #E0E1E1",
"> 	c #DEDFDF",
", 	c #A3A19F",
"' 	c #EAEBEC",
") 	c #EAEAEB",
"! 	c #E9E9EA",
"~ 	c #E9EAEA",
"{ 	c #EAEAEC",
"] 	c #A4A29F",
"^ 	c #969696",
"/ 	c #E6E7E7",
"( 	c #F1F1F2",
"_ 	c #F4F4F4",
": 	c #F5F5F5",
"< 	c #E5E6E7",
"[ 	c #969798",
"} 	c #D7D8DA",
"| 	c #EBEBEC",
"1 	c #F3F3F4",
"2 	c #F7F7F7",
"3 	c #FBFBFB",
"4 	c #FCFCFC",
"5 	c #F9F9F9",
"6 	c #ECEDEE",
"7 	c #E0E2E4",
"8 	c #D5D7DB",
"9 	c #97999D",
"0 	c #D7D8DB",
"a 	c #DDDFDF",
"b 	c #E4E4E5",
"c 	c #ECECED",
"d 	c #F3F3F3",
"e 	c #FAFAFA",
"f 	c #FEFEFE",
"g 	c #F7F7F8",
"h 	c #F0F0F2",
"i 	c #DEDFE3",
"j 	c #D3D6DC",
"k 	c #CCCBC9",
"l 	c #816B4E",
"m 	c #939393",
"n 	c #D6D7D9",
"o 	c #DDDFE0",
"p 	c #F2F2F2",
"q 	c #FDFEFE",
"r 	c #EEF1F2",
"s 	c #D6D0C5",
"t 	c #DFCDAD",
"u 	c #F0DFBE",
"v 	c #EBAD5C",
"w 	c #7B7B7B",
"x 	c #D2D3D4",
"y 	c #F9FAFB",
"z 	c #DFDAD4",
"A 	c #EECC93",
"B 	c #FDD997",
"C 	c #FBE2B3",
"D 	c #DC9946",
"E 	c #C8CACD",
"F 	c #DCDEE0",
"G 	c #E5E5E6",
"H 	c #ECEBED",
"I 	c #E3C79F",
"J 	c #FCCC80",
"K 	c #FCDCA0",
"L 	c #F6D7A5",
"M 	c #B87F37",
"N 	c #796C59",
"O 	c #D1CECB",
"P 	c #E1E1E5",
"Q 	c #EEEEF0",
"R 	c #F4F4F6",
"S 	c #EFF2F8",
"T 	c #D8C09E",
"U 	c #FABF6C",
"V 	c #FCCC81",
"W 	c #FCDFA9",
"X 	c #EDC996",
"Y 	c #D3B082",
"Z 	c #D5D3CE",
"` 	c #DADDE5",
" .	c #DBDEE2",
"..	c #D9C7AE",
"+.	c #EFB05A",
"@.	c #FCE4B1",
"#.	c #E5BC87",
"$.	c #D4A362",
"%.	c #E4C288",
"&.	c #D6AC6A",
"*.	c #D9AE6D",
"=.	c #E7A74F",
"-.	c #F3B054",
";.	c #F9C06E",
">.	c #FBCC80",
",.	c #D5AA72",
"'.	c #C19155",
").	c #E9C383",
"!.	c #DCA34A",
"~.	c #E1A74D",
"{.	c #E9A648",
"].	c #F3B156",
"^.	c #FAE1B4",
"/.	c #C49A62",
"(.	c #AD824C",
"_.	c #E8C486",
":.	c #DBA34B",
"<.	c #E0A74E",
"[.	c #E9A649",
"}.	c #F8E0B6",
"|.	c #B08854",
"1.	c #7A5A34",
"2.	c #E8C78F",
"3.	c #DBA34A",
"4.	c #F5DFB7",
"5.	c #A67C4B",
"6.	c #664B2D",
"7.	c #E8C58F",
"8.	c #F3DDB8",
"9.	c #674E31",
"0.	c #654B2E",
"a.	c #E5C28B",
"b.	c #F2DDB6",
"c.	c #664E32",
"d.	c #644B2F",
"e.	c #E4C087",
"f.	c #DBA349",
"g.	c #E0A74D",
"h.	c #FDCC80",
"i.	c #F2DBB2",
"j.	c #664D34",
"k.	c #5E4831",
"l.	c #E2C291",
"m.	c #E1B366",
"n.	c #E0A850",
"o.	c #E7A346",
"p.	c #F0AD53",
"q.	c #F8C06F",
"r.	c #FCD393",
"s.	c #ECD8B5",
"t.	c #5F4932",
"u.	c #524E49",
"v.	c #D0CFCD",
"w.	c #E5D4BD",
"x.	c #E4C79F",
"y.	c #E9C498",
"z.	c #EDC89E",
"A.	c #EDCFAA",
"B.	c #E9DAC6",
"C.	c #D1CDC8",
"D.	c #534C44",
"E.	c #515152",
"F.	c #C9C8C7",
"G.	c #CBBCAC",
"H.	c #CDAE94",
"I.	c #D0A582",
"J.	c #D0A683",
"K.	c #CCAD92",
"L.	c #CBBAA8",
"M.	c #C9C7C4",
"N.	c #9A9A9A",
"O.	c #C9C2BC",
"P.	c #D1C0AF",
"Q.	c #CFB499",
"R.	c #CFB49A",
"S.	c #D1C0AE",
"T.	c #C8C2BB",
"U.	c #9A9A9B",
"V.	c #4C4D4D",
"W.	c #515253",
"X.	c #515254",
"              . + @ # # # # $ + .               ",
"            % & * = - ; - - > * & %             ",
"          , ' ) ! ! ! ! ! ! ! ~ ) { ]           ",
"          ^ / ( _ : : : : : : _ ( < [           ",
"          ^ } ; | 1 2 3 4 5 : 6 7 8 9           ",
"          ^ 0 a b c d e f g h i j k l           ",
"          m n o b c p 5 q r s t u v             ",
"          w x o b c p e y z A B C D             ",
"            E F G c d 4 H I J K L M             ",
"            N O P Q R S T U V W X               ",
"              Y Z `  ...+.U V @.#.              ",
"              $.%.&.*.=.-.;.>.C ,.              ",
"              '.).!.~.{.].;.V ^./.              ",
"              (._.:.<.[.].;.>.}.|.              ",
"              1.2.3.<.[.].;.V 4.5.              ",
"              6.7.3.<.[.].;.>.8.9.              ",
"              0.a.3.<.[.].;.>.b.c.              ",
"              d.e.f.g.[.].;.h.i.j.              ",
"              k.l.m.n.o.p.q.r.s.t.              ",
"              u.v.w.x.y.z.A.B.C.D.              ",
"              E.F.G.H.I.J.K.L.M.E.              ",
"                N.O.P.Q.R.S.T.U.                ",
"                  V.W.X.X.W.V.                  ",
"                                                "};
