/* XPM */
static char * calendar_clock_icon_24_xpm[] = {
"24 24 73 1",
" 	c None",
".	c #B8BEC2",
"+	c #B9BFC3",
"@	c #BCC2C6",
"#	c #E64F3F",
"$	c #E64C3C",
"%	c #E64B3B",
"&	c #E64E3F",
"*	c #E74E3E",
"=	c #E1493A",
"-	c #95A4A5",
";	c #E74C3C",
">	c #D44334",
",	c #9E8D8A",
"'	c #E14939",
")	c #C53B2D",
"!	c #EBEFF0",
"~	c #ECF0F1",
"{	c #BDC3C7",
"]	c #DEE4E5",
"^	c #B5C1C2",
"/	c #9BAAAB",
"(	c #8C9C9F",
"_	c #B1BABD",
":	c #546672",
"<	c #34485B",
"[	c #314559",
"}	c #8B9B9D",
"|	c #3D5062",
"1	c #33485D",
"2	c #808C98",
"3	c #8B9B9E",
"4	c #566875",
"5	c #34495E",
"6	c #B1B8BE",
"7	c #849293",
"8	c #374C5F",
"9	c #3A4F63",
"0	c #B5BCC1",
"a	c #93A3A4",
"b	c #8E9EA0",
"c	c #667584",
"d	c #596875",
"e	c #A2ADB1",
"f	c #AFB6BC",
"g	c #74828F",
"h	c #8D9DA0",
"i	c #E7ECED",
"j	c #9CABAC",
"k	c #394D61",
"l	c #3B485B",
"m	c #7F4548",
"n	c #647382",
"o	c #94A4A5",
"p	c #CBD1D4",
"q	c #B7C2C3",
"r	c #5B6E7B",
"s	c #3A485B",
"t	c #7F4042",
"u	c #818F90",
"v	c #B7BFC2",
"w	c #90A0A2",
"x	c #465869",
"y	c #44586A",
"z	c #8E9EA1",
"A	c #8FA0A2",
"B	c #60737F",
"C	c #3F5466",
"D	c #354A5E",
"E	c #61737F",
"F	c #7E8B8C",
"G	c #95A5A6",
"H	c #7F8D8E",
"                        ",
"     .+          .+     ",
"     @@          @@     ",
"    #@@$%%%%%%%%$@@&    ",
"   *=--=%;;;%;%;=--=*   ",
"   ;>,,>%;;;%;%;>,,>%   ",
"   %'))'%%%%%%%%'))'%   ",
"   ;;%%;%;;;%;%;;%%;%   ",
"   ;;%;;%;;;%;%;;%;;%   ",
"   !!!!!!!!!!!!!!!!!!   ",
"   ~~!!~!!~!!~!!~!!~!   ",
"   !!{{!{{!{{!{{!{{!!   ",
"   ~!{{!{{!{{!{{!{{!!   ",
"   ~~!!!!!!!!!!]^/(/^   ",
"   ~!{{!{{!{{!_(:<[<:}  ",
"   !!{{!{{!{{](|11211|3 ",
"   ~~!!!!!!!!^4551651547",
"   ~!{{!{{!{{/855909158a",
"   !!{{!{{!{{b111cdeffgh",
"   i~!!~!!~!!jk5lmnk15ko",
"   pi!~~!~~~!qrstl5515ru",
"    @@@@@@@@@vwxs1111yz ",
"               ABCDCEA  ",
"                FooGH   "};
