/* XPM */
static char * drop_icon_24_xpm[] = {
"24 24 41 1",
" 	c None",
".	c #2A81BB",
"+	c #2B84BE",
"@	c #2F8FCE",
"#	c #3090CF",
"$	c #3396D8",
"%	c #3396D9",
"&	c #2C86C1",
"*	c #3498DB",
"=	c #3397DA",
"-	c #2C87C3",
";	c #3090D0",
">	c #3191D2",
",	c #2981BA",
"'	c #2A82BD",
")	c #3091D1",
"!	c #2B85C1",
"~	c #2C87C2",
"{	c #236FA1",
"]	c #308FCF",
"^	c #2471A4",
"/	c #287FB8",
"(	c #3293D4",
"_	c #3294D6",
":	c #2980B9",
"<	c #3293D5",
"[	c #206491",
"}	c #216795",
"|	c #287FB7",
"1	c #2C87C4",
"2	c #2D88C5",
"3	c #3191D1",
"4	c #2E8BC9",
"5	c #3294D5",
"6	c #2E8CCA",
"7	c #2980BA",
"8	c #287EB6",
"9	c #1F628E",
"0	c #206592",
"a	c #287EB7",
"b	c #206390",
"                        ",
"                        ",
"           .+           ",
"           @#           ",
"           $%           ",
"          &*=-          ",
"          ;==>          ",
"         ,=*=='         ",
"         ;**=*)         ",
"        !======~        ",
"       {]***=*=;^       ",
"       /(======_/       ",
"      ::<***=*=_:/      ",
"     [::#***=*=):/}     ",
"     |::1***=*=2://     ",
"     ///:;====3:///     ",
"     /::/:45567::/:     ",
"     8::/:::/:/:://     ",
"     9////////////0     ",
"      ::/:::/:/::/      ",
"       :/:::/:/::       ",
"        ////////        ",
"         9a:/ab         ",
"                        "};
