/* XPM */
static char * gnome_cpu_24_xpm[] = {
"24 24 169 2",
"  	c None",
". 	c #000000",
"+ 	c #C5C5C5",
"@ 	c #131313",
"# 	c #C9C9C9",
"$ 	c #0F0F0F",
"% 	c #A3A3A3",
"& 	c #C1C1C1",
"* 	c #111111",
"= 	c #C4C4C4",
"- 	c #191919",
"; 	c #A5A5A5",
"> 	c #C2C2C2",
", 	c #040404",
"' 	c #3C3C3C",
") 	c #5A5A5A",
"! 	c #D9D9D9",
"~ 	c #C6C6C6",
"{ 	c #CBCBCB",
"] 	c #C7C7C7",
"^ 	c #BFBFBF",
"/ 	c #C3C3C3",
"( 	c #BABABA",
"_ 	c #BCBCBC",
": 	c #ADADAD",
"< 	c #B5B5B5",
"[ 	c #ABABAB",
"} 	c #9B9B9B",
"| 	c #BDBDBD",
"1 	c #B1B1B1",
"2 	c #9C9C9C",
"3 	c #999999",
"4 	c #969696",
"5 	c #959595",
"6 	c #939393",
"7 	c #919191",
"8 	c #8F8F8F",
"9 	c #8D8D8D",
"0 	c #8B8B8B",
"a 	c #898989",
"b 	c #535353",
"c 	c #6C6C6B",
"d 	c #C0C0C0",
"e 	c #949494",
"f 	c #929292",
"g 	c #8E8E8E",
"h 	c #8C8C8C",
"i 	c #949393",
"j 	c #888888",
"k 	c #4C4C4C",
"l 	c #1C1B1B",
"m 	c #B9B9B9",
"n 	c #B4B3B3",
"o 	c #CBCACA",
"p 	c #B7B7B7",
"q 	c #B1B0B0",
"r 	c #AFAEAE",
"s 	c #CACACA",
"t 	c #B0AFAF",
"u 	c #A8A8A8",
"v 	c #D3D3D3",
"w 	c #DBD9D9",
"x 	c #919090",
"y 	c #50504F",
"z 	c #959594",
"A 	c #0B0B0B",
"B 	c #B4B4B4",
"C 	c #C4C3C3",
"D 	c #C6C5C5",
"E 	c #BBBABA",
"F 	c #BBB9B9",
"G 	c #A7A6A6",
"H 	c #979797",
"I 	c #878787",
"J 	c #454545",
"K 	c #010101",
"L 	c #BEBEBE",
"M 	c #ADACAC",
"N 	c #C1C0C0",
"O 	c #C8C7C7",
"P 	c #C5C4C4",
"Q 	c #868686",
"R 	c #A4A3A3",
"S 	c #898888",
"T 	c #484848",
"U 	c #979695",
"V 	c #A7A7A7",
"W 	c #848484",
"X 	c #828282",
"Y 	c #808080",
"Z 	c #7E7E7E",
"` 	c #7C7C7C",
" .	c #464646",
"..	c #151414",
"+.	c #838383",
"@.	c #858585",
"#.	c #7D7D7D",
"$.	c #7B7B7B",
"%.	c #797979",
"&.	c #414141",
"*.	c #B0B0AF",
"=.	c #777777",
"-.	c #464545",
";.	c #171716",
">.	c #9D9D9D",
",.	c #9C9B9B",
"'.	c #A5A4A4",
").	c #A1A1A1",
"!.	c #ABAAAA",
"~.	c #979696",
"{.	c #8F8E8E",
"].	c #787878",
"^.	c #767676",
"/.	c #747474",
"(.	c #3D3D3D",
"_.	c #8C8B8B",
":.	c #8D8C8C",
"<.	c #757575",
"[.	c #727272",
"}.	c #707070",
"|.	c #424242",
"1.	c #030303",
"2.	c #7A7A7A",
"3.	c #999898",
"4.	c #737373",
"5.	c #717171",
"6.	c #3B3B3B",
"7.	c #999897",
"8.	c #B2B2B2",
"9.	c #A3A2A2",
"0.	c #A09F9F",
"a.	c #A0A0A0",
"b.	c #A1A0A0",
"c.	c #989797",
"d.	c #6E6E6E",
"e.	c #6D6D6D",
"f.	c #6B6B6B",
"g.	c #969595",
"h.	c #888787",
"i.	c #858484",
"j.	c #9A9999",
"k.	c #818181",
"l.	c #696969",
"m.	c #686868",
"n.	c #666666",
"o.	c #3A3A3A",
"p.	c #7F7F7E",
"q.	c #838282",
"r.	c #878686",
"s.	c #777676",
"t.	c #646464",
"u.	c #626262",
"v.	c #616161",
"w.	c #353535",
"x.	c #B8B8B8",
"y.	c #636363",
"z.	c #5F5F5F",
"A.	c #5E5E5E",
"B.	c #5C5C5C",
"C.	c #383838",
"D.	c #3F3F3F",
"E.	c #404040",
"F.	c #363636",
"G.	c #262626",
"H.	c #020202",
"I.	c #9E9E9E",
"J.	c #7F7F7F",
"K.	c #989898",
"L.	c #080808",
"      . . . . . . . . . . . . . . . . .         ",
"      . + @ # $ % . & * = - ; . ; . > ,         ",
"    ' ' ) . ) . ) . ) . ) . ) . ) . ) ' '       ",
". . ' ! ~ { ~ > ] ^ { / # > ( _ : < [ } ' . .   ",
". | ) 1 2 3 3 3 3 3 3 4 5 6 7 8 9 0 a b ) c .   ",
". . . d 5 6 5 6 5 e 5 4 f g h e 5 i j k . l .   ",
". # ) m f n o p q ^ r s t 9 0 u v w x y ) z .   ",
". A . B 8 ( C D E o F d G p j H I v 9 J . K .   ",
". | ) d h L 4 D M N r O P : Q D 6 R S T ) U .   ",
". $ . V a I I I I I I Q j Q W X Y Z `  .. ...   ",
". # ) > Q W W +.+.+.W X @.W X Y #.$.%.&.) *..   ",
". A . V +.+.@.j W Q Q Q I 0 Y #.$.%.=.-.. ;..   ",
". >.) B Y 5 ,.'.).3 !.6 ~.R {.$.].^./.(.) z .   ",
". . . : #.a g f {._.5 j :.{.@.].<.[.}.|.. 1..   ",
". L ) ; 2.{.j x ~.9 5 3.{.].=.<.4.5.}.6.) 7..   ",
". * . 8.^.9.{.,.0.H a.b.c.<.5.}.d.e.f.' . . .   ",
". ] ) 3 5.g.0.h.S i.j.~.i k.e.f.l.m.n.o.) p..   ",
". * . 1 f.q.r.=.5.$.0 h.W s.m.n.t.u.v.w.. . .   ",
". x.) H n.y.y.y.y.y.y.y.u.y.y.v.z.A.B.C.) p..   ",
". . ' 7 J o.|.C.(.' o.D.C.E.C.' o.F.C.G.' . .   ",
"    ' ' ) . ) . ) . ) . ) . ) . ) . ) ' '       ",
"      . % . H H.I.. J.. K., k.L.k.. k..         ",
"      . . . . . . . . . . . . . . . . .         ",
"                                                "};
