/* XPM */
static char * harddisk_icon_24_xpm[] = {
"24 24 112 2",
"  	c None",
". 	c #9C9C9C",
"+ 	c #9A9A9A",
"@ 	c #BEBEBE",
"# 	c #D8D8D8",
"$ 	c #D4D4D3",
"% 	c #D2D2D1",
"& 	c #D0D0CF",
"* 	c #BABABA",
"= 	c #B8B8B8",
"- 	c #B6B6B6",
"; 	c #B4B4B4",
"> 	c #B2B2B2",
", 	c #979797",
"' 	c #9D9D9D",
") 	c #BCBCBC",
"! 	c #BBBBBB",
"~ 	c #C9C9C9",
"{ 	c #CACACA",
"] 	c #CCCCCC",
"^ 	c #CECECD",
"/ 	c #CFCFCF",
"( 	c #CFCFCE",
"_ 	c #BFBFBF",
": 	c #BDBDBD",
"< 	c #ACACAC",
"[ 	c #C1C1C1",
"} 	c #C5C5C5",
"| 	c #A4A4A4",
"1 	c #CECECE",
"2 	c #D0D0D0",
"3 	c #D1D1D1",
"4 	c #D3D3D3",
"5 	c #DDDDDD",
"6 	c #AAAAAA",
"7 	c #CBCBCB",
"8 	c #C7C7C7",
"9 	c #C4C4C4",
"0 	c #CDCDCD",
"a 	c #ABABAB",
"b 	c #D4D4D4",
"c 	c #D6D6D6",
"d 	c #E1E1E1",
"e 	c #EFEFEF",
"f 	c #D5D5D5",
"g 	c #B0B0B0",
"h 	c #595959",
"i 	c #D2D2D2",
"j 	c #D7D7D7",
"k 	c #DADADA",
"l 	c #E4E4E4",
"m 	c #F0F0F0",
"n 	c #D9D9D9",
"o 	c #6F6F6F",
"p 	c #E7E7E7",
"q 	c #EEEEEE",
"r 	c #DFDFDF",
"s 	c #DCDCDC",
"t 	c #DBDBDB",
"u 	c #858585",
"v 	c #E2E2E2",
"w 	c #848484",
"x 	c #999999",
"y 	c #A6A6A6",
"z 	c #A7A7A7",
"A 	c #AEAEAE",
"B 	c #C2C2C2",
"C 	c #C0C0C0",
"D 	c #B7B7B7",
"E 	c #C8C8C8",
"F 	c #C3C3C3",
"G 	c #C6C6C6",
"H 	c #5C5C5C",
"I 	c #E5E5E5",
"J 	c #B9B9B9",
"K 	c #5D5D5D",
"L 	c #E6E6E6",
"M 	c #E0E0E0",
"N 	c #818181",
"O 	c #ADADAD",
"P 	c #B3B3B3",
"Q 	c #828282",
"R 	c #575757",
"S 	c #959595",
"T 	c #949494",
"U 	c #8A8A8A",
"V 	c #929292",
"W 	c #919191",
"X 	c #909090",
"Y 	c #8F8F8F",
"Z 	c #8E8E8E",
"` 	c #939393",
" .	c #585858",
"..	c #3A3A3A",
"+.	c #5A5A5A",
"@.	c #2E2E2E",
"#.	c #555555",
"$.	c #565656",
"%.	c #494949",
"&.	c #464646",
"*.	c #4B4B4B",
"=.	c #556349",
"-.	c #56634A",
";.	c #303030",
">.	c #282828",
",.	c #1D1D1D",
"'.	c #393939",
").	c #525252",
"!.	c #3D3D3D",
"~.	c #3C3C3C",
"{.	c #4D4D4D",
"].	c #535D52",
"                                                ",
"      . + @ # $ % % % & % * * = - ; > , '       ",
"      ) ! ! ~ { ] ^ / ( / - @ _ : < [ _ !       ",
"      } | ] 1 / 2 3 3 4 5 > 2 2 1 6 7 8 9       ",
"      0 a 3 4 b c c d e 1 { c f b g / / ]       ",
"    h i = j # k l m l / 4 k k n n * 2 b 3 h     ",
"    o j 9 p e q r f # s s s t t t 9 2 # c o     ",
"    u j t v 4 f s s t t t t s s s 2 4 k j w     ",
"    x y j ] k t k k n n n k k k t k ] j z x     ",
"    A s 8 j n n # # # # # # # # n k j 8 s A     ",
"    B # ) # # j c b i b f f c c j # n : n B     ",
"    2 { C c f 4 i D 2 2 2 2 ! i b f j C { 3     ",
"    f ~ [ 4 3 / 1 E r 3 3 t F / 2 i b [ ~ f     ",
"    c i : 2 0 ] { ~ 4 d d 4 ~ 7 ] 1 2 @ b c     ",
"    b 3 ~ 1 { E G 9 F B B F } G ~ 7 1 { i f     ",
"    i / ] n 3 F C @ : ) ) : _ [ 9 i n 0 2 4     ",
"  H / ] ~ G r I E J D - - D J E I r E { 0 2 K   ",
"  o C } } [ ) [ k L I M M I L t B @ B 8 G [ o   ",
"  N ; ! B : = ; g O < g g O A > - * _ 9 ! P Q   ",
"  R S T U V W X Y Z Y Y X W Z Y X W V ` T S  .  ",
"  ..+.+.@.#.$.$.$.$.%.&.*. .+.+.+.+.+.=.-.+...  ",
"  ;.R R >.,.'.%.).$.!.'.~.{.R R R R R ].].R ;.  ",
"                                                ",
"                                                "};
