/* XPM */
static char * memory_icon_24_xpm[] = {
"24 24 200 2",
"  	c None",
". 	c #2F8633",
"+ 	c #318535",
"@ 	c #328536",
"# 	c #338337",
"$ 	c #348238",
"% 	c #38813B",
"& 	c #317B37",
"* 	c #3A9337",
"= 	c #3D9439",
"- 	c #3F943A",
"; 	c #41943B",
"> 	c #45953E",
", 	c #499640",
"' 	c #53974C",
") 	c #5C9758",
"! 	c #458E40",
"~ 	c #5B855A",
"{ 	c #5C7A5C",
"] 	c #498741",
"^ 	c #636F63",
"/ 	c #5F685C",
"( 	c #317835",
"_ 	c #4FA440",
": 	c #57A844",
"< 	c #5BAB48",
"[ 	c #5BA948",
"} 	c #5EA44F",
"| 	c #67995D",
"1 	c #639558",
"2 	c #5B9D4C",
"3 	c #60745D",
"4 	c #606F5D",
"5 	c #589545",
"6 	c #616360",
"7 	c #4D4D4C",
"8 	c #5A8C46",
"9 	c #5B5E57",
"0 	c #4B4D4A",
"a 	c #4F8542",
"b 	c #4A5E4D",
"c 	c #426141",
"d 	c #2C7B32",
"e 	c #297D31",
"f 	c #2B7D33",
"g 	c #60AC48",
"h 	c #6C7C65",
"i 	c #5F615F",
"j 	c #62894F",
"k 	c #6D8B5A",
"l 	c #4A4A4A",
"m 	c #5B644D",
"n 	c #63984E",
"o 	c #455348",
"p 	c #425C42",
"q 	c #4D8F3F",
"r 	c #487347",
"s 	c #40733F",
"t 	c #438C3C",
"u 	c #41863E",
"v 	c #3C883A",
"w 	c #3E8A3B",
"x 	c #458D43",
"y 	c #468B45",
"z 	c #488749",
"A 	c #568157",
"B 	c #467E48",
"C 	c #4F973E",
"D 	c #626658",
"E 	c #406340",
"F 	c #4D8D41",
"G 	c #509744",
"H 	c #478B3F",
"I 	c #49963F",
"J 	c #4A9C3F",
"K 	c #509F42",
"L 	c #52A044",
"M 	c #599E4E",
"N 	c #619959",
"O 	c #56954D",
"P 	c #599051",
"Q 	c #5F795D",
"R 	c #5A8152",
"S 	c #5F8656",
"T 	c #5B5C5C",
"U 	c #566F4D",
"V 	c #5D7853",
"W 	c #496C43",
"X 	c #59A145",
"Y 	c #636757",
"Z 	c #498C3E",
"` 	c #63AA50",
" .	c #69995D",
"..	c #67925C",
"+.	c #5DA447",
"@.	c #6A7F65",
"#.	c #626A62",
"$.	c #5F914D",
"%.	c #667859",
"&.	c #4B4B4B",
"*.	c #59744A",
"=.	c #648156",
"-.	c #566B49",
";.	c #5D7D53",
">.	c #516948",
",.	c #5A7352",
"'.	c #486C43",
").	c #458F3A",
"!.	c #646855",
"~.	c #437E3C",
"{.	c #719559",
"].	c #51554B",
"^.	c #67A04A",
"/.	c #5E6159",
"(.	c #5D8849",
"_.	c #657556",
":.	c #567149",
"<.	c #617D54",
"[.	c #546A49",
"}.	c #5B7951",
"|.	c #4F6847",
"1.	c #586F50",
"2.	c #436A40",
"3.	c #4A983F",
"4.	c #538749",
"5.	c #3D7F3A",
"6.	c #719557",
"7.	c #4F524B",
"8.	c #649D49",
"9.	c #5D6157",
"0.	c #5D8449",
"a.	c #627454",
"b.	c #567049",
"c.	c #5D7951",
"d.	c #536948",
"e.	c #56744E",
"f.	c #484F49",
"g.	c #446A42",
"h.	c #426E44",
"i.	c #395F40",
"j.	c #2F6A3A",
"k.	c #54923F",
"l.	c #94B458",
"m.	c #5F9842",
"n.	c #709455",
"o.	c #4D504B",
"p.	c #619948",
"q.	c #5D6155",
"r.	c #567F47",
"s.	c #5C7350",
"t.	c #485648",
"u.	c #4A7444",
"v.	c #487D45",
"w.	c #3E6D41",
"x.	c #38773D",
"y.	c #34793A",
"z.	c #38773A",
"A.	c #52813D",
"B.	c #6F8C40",
"C.	c #8B9643",
"D.	c #899241",
"E.	c #D4C269",
"F.	c #759447",
"G.	c #659450",
"H.	c #4B5749",
"I.	c #4B6448",
"J.	c #529544",
"K.	c #4E7F47",
"L.	c #457E42",
"M.	c #42893F",
"N.	c #40883E",
"O.	c #4D8A3F",
"P.	c #689445",
"Q.	c #85A04A",
"R.	c #9DA74E",
"S.	c #B0AB53",
"T.	c #CBB457",
"U.	c #DCBA59",
"V.	c #D1B059",
"W.	c #D0AE57",
"X.	c #D0AD53",
"Y.	c #357F31",
"Z.	c #4D9A42",
"`.	c #4E9742",
" +	c #619C47",
".+	c #7BA64F",
"++	c #92AD54",
"@+	c #A7B159",
"#+	c #BFB85E",
"$+	c #DBC563",
"%+	c #D9BD63",
"&+	c #D1B560",
"*+	c #D3B657",
"=+	c #CEB058",
"-+	c #BDBC61",
";+	c #DBC86E",
">+	c #D7C16B",
",+	c #D9C268",
"'+	c #CAB163",
")+	c #CAB061",
"                                                ",
"                                                ",
"                                                ",
"                                                ",
"                                                ",
"                                                ",
"                            . + @ # $ % &       ",
"            * = - ; > , ' ) ! ~ { ] ^ / (       ",
"  _ : < [ } | 1 2 3 4 5 6 7 8 9 0 a b c d e f   ",
"  g h i j k l m n o p q r s t u v w x y z A B   ",
"  C D E F G H I J K L M N O P Q R S T U V l W   ",
"  X Y Z `  ...+.@.#.$.%.&.*.=.l -.;.l >.,.l '.  ",
"  ).!.~.{.l ].^./.l (._.l :.<.l [.}.l |.1.l 2.  ",
"  3.4.5.6.l 7.8.9.l 0.a.l b.c.l d.e.f.g.h.i.j.  ",
"  k.l.m.n.l o.p.q.l r.s.t.u.v.w.x.y.z.A.B.C.D.  ",
"    E.F.G.H.I.J.K.L.M.N.O.P.Q.R.S.T.U.V.W.X.    ",
"      Y.Z.`. +.+++@+#+$+%+&+*+=+                ",
"        -+;+>+,+'+)+                            ",
"                                                ",
"                                                ",
"                                                ",
"                                                ",
"                                                ",
"                                                "};
