/* XPM */
static char *microphone_icon_24[] = {
/* columns rows colors chars-per-pixel */
"24 24 178 2 ",
"   c None",
".  c #444243",
"X  c gray27",
"o  c #464445",
"O  c #464545",
"+  c #484747",
"@  c #494748",
"#  c #484848",
"$  c #494949",
"%  c #4B4B4B",
"&  c #4C494A",
"*  c #4D4B4B",
"=  c #4E4A4B",
"-  c #4E4C4C",
";  c #4E4D4D",
":  c #504E4F",
">  c #514E4F",
",  c #504F4F",
"<  c #505050",
"1  c #525051",
"2  c #555052",
"3  c #545152",
"4  c #555253",
"5  c #555454",
"6  c #575656",
"7  c #585355",
"8  c #585455",
"9  c #595456",
"0  c #595657",
"q  c #5C5759",
"w  c #595859",
"e  c gray35",
"r  c #5A5A5A",
"t  c #5B5A5B",
"y  c #5C595A",
"u  c #5C5B5C",
"i  c #5E5A5C",
"p  c #5E5D5E",
"a  c gray37",
"s  c #635A5D",
"d  c #615E5F",
"f  c #625F60",
"g  c #606060",
"h  c #616060",
"j  c #616061",
"k  c #626161",
"l  c #676263",
"z  c #646464",
"x  c #666465",
"c  c gray40",
"v  c #686667",
"b  c #6C6769",
"n  c DimGray",
"m  c #6E6D6D",
"M  c #736C6E",
"N  c #766F72",
"B  c #727272",
"V  c #747474",
"C  c #787374",
"Z  c #787275",
"A  c #7A7274",
"S  c #7D7578",
"D  c #7C7678",
"F  c #7B7B7B",
"G  c #7F7A7B",
"H  c #7F7B7C",
"J  c gray50",
"K  c #81797C",
"L  c #837E81",
"P  c #847D80",
"I  c #818181",
"U  c #838283",
"Y  c #878384",
"T  c #898284",
"R  c #898385",
"E  c #888888",
"W  c #8F898C",
"Q  c #8E8B8C",
"!  c #8E8D8D",
"~  c #8E8E8E",
"^  c #908D8E",
"/  c #918C8F",
"(  c #938E8F",
")  c #938D90",
"_  c #928E90",
"`  c #919090",
"'  c #939293",
"]  c #979193",
"[  c #969393",
"{  c #979395",
"}  c #969495",
"|  c #999496",
" . c #9A9697",
".. c #9B9598",
"X. c #9A9798",
"o. c #989898",
"O. c #9B9A9A",
"+. c #9D989A",
"@. c #9F999B",
"#. c #9F9A9B",
"$. c #9E9B9C",
"%. c #9E9B9D",
"&. c #9F9E9E",
"*. c #9F9F9F",
"=. c #A09B9D",
"-. c #A09C9D",
";. c #A09D9E",
":. c #A19D9E",
">. c #A29C9E",
",. c #A09FA0",
"<. c gray63",
"1. c #A2A2A2",
"2. c #A7A3A5",
"3. c #AAA6A7",
"4. c #AAA8A8",
"5. c #ABA8AA",
"6. c #AAAAAA",
"7. c #AEA9AA",
"8. c #AFABAC",
"9. c #ACACAC",
"0. c #ADACAC",
"q. c #AEAEAE",
"w. c #AFAEAE",
"e. c #AFAEAF",
"r. c #AFAFAF",
"t. c #B1ABAD",
"y. c #B1AEAF",
"u. c #B3B0B1",
"i. c #B4B1B2",
"p. c #B4B1B3",
"a. c #B5B1B3",
"s. c #B6B1B2",
"d. c #B4B2B3",
"f. c #B5B2B3",
"g. c #B4B4B4",
"h. c gray71",
"j. c #B6B6B6",
"k. c #B9B5B6",
"l. c #B9B7B8",
"z. c #BBB7B9",
"x. c gray72",
"c. c #B9B9B9",
"v. c gray73",
"b. c #BCB8BA",
"n. c #BCB9BA",
"m. c gray75",
"M. c #C0BDBF",
"N. c #C0BFC0",
"B. c #C2BFC0",
"V. c #C0C0C0",
"C. c #C1C1C1",
"Z. c #C2C1C1",
"A. c #C7C3C4",
"S. c #C8C5C7",
"D. c #C8C7C8",
"F. c #CAC9C9",
"G. c gray80",
"H. c #CECCCC",
"J. c #CECCCD",
"K. c #CECDCE",
"L. c #D1CECF",
"P. c #D1CFD0",
"I. c #D2D0D1",
"U. c #D4D1D3",
"Y. c #D8D7D7",
"T. c #DBD8D8",
"R. c #DBD9DA",
"E. c #DEDCDD",
"W. c #DFDEDE",
"Q. c #E0DFDF",
"!. c #E0DFE0",
"~. c #E2E2E2",
"^. c #E7E6E6",
"/. c #EFEEEE",
"(. c #EFEFEF",
"). c gray94",
"_. c #FAF9F9",
"`. c #FDFDFD",
/* pixels */
"                                                ",
"                    F.l.w.%.! B                 ",
"                r.C.~.d.0.[ H m p               ",
"                9.G.).K.Z.i.=.Q x               ",
"                <.j.V.v.E.F j j <               ",
"                ,./.`._.R.u.$.8.v               ",
"                ~ q.c.o.P.g t u ;               ",
"                ' !.(.H.B.s.7.a.x               ",
"            @.  E <.6.U f.a e 6 %   #.          ",
"            |   ` I.Q.n.k.8.-.( y h  .          ",
"            ..  J O.1.V b.p r 5 $   2.          ",
"            +.  I P.T.z.a.5._ Z >   :.          ",
"            ]   z n c k p.w , * O   >.          ",
"            T   g L } ^ Y M q = +   R           ",
"            K   : & 0 f d 3 @ . o   l           ",
"            S C   # - 8 4 1 @ X     9           ",
"              N G       *.        7             ",
"                D / t.) X.W A s 2               ",
"                      m.A.&.                    ",
"                  j.j.m.J.e.j.j.                ",
"            j.x.D.~.^.v.N.g.y.3.;.0.j.          ",
"          j.S.W.Y.U.L.M.d.4.{ P b 2 i h.        ",
"            g.j.j.j.j.j.j.j.j.j.j.j.r.          ",
"                                                "
};
