/* XPM */
static char * network_icon_24_xpm[] = {
"24 24 232 2",
"  	c None",
". 	c #5E6870",
"+ 	c #C0C7D0",
"@ 	c #A2AEBB",
"# 	c #8D9BAB",
"$ 	c #7D8D9E",
"% 	c #718191",
"& 	c #6D7C88",
"* 	c #738088",
"= 	c #838B94",
"- 	c #E4EDF8",
"; 	c #D0DFF4",
"> 	c #B4CEEF",
", 	c #84B0E5",
"' 	c #659EDE",
") 	c #5595D8",
"! 	c #478ACC",
"~ 	c #4182BD",
"{ 	c #3F7DB1",
"] 	c #637481",
"^ 	c #ACB5C0",
"/ 	c #CDDDF4",
"( 	c #6FA1E0",
"_ 	c #5C96DC",
": 	c #6CA2E1",
"< 	c #68A3E2",
"[ 	c #579CE0",
"} 	c #4193DD",
"| 	c #2F8CDC",
"1 	c #2F90DD",
"2 	c #4E5B63",
"3 	c #B4C4D7",
"4 	c #5F96DC",
"5 	c #98BDE9",
"6 	c #87B4E7",
"7 	c #5F9EE0",
"8 	c #4994DD",
"9 	c #3D91DD",
"0 	c #348FDD",
"a 	c #2B8EDD",
"b 	c #3392D8",
"c 	c #4A5155",
"d 	c #6A92C6",
"e 	c #95BCE9",
"f 	c #488DDA",
"g 	c #2078D4",
"h 	c #1F7CD6",
"i 	c #1F80D7",
"j 	c #1F84D9",
"k 	c #1F88DB",
"l 	c #1F8CDD",
"m 	c #4298D4",
"n 	c #767C80",
"o 	c #789FCD",
"p 	c #2D7DD5",
"q 	c #1F78D4",
"r 	c #1F80D8",
"s 	c #1F85D9",
"t 	c #1F89DB",
"u 	c #1F8DDD",
"v 	c #2393DF",
"w 	c #60AADA",
"x 	c #959A9D",
"y 	c #626A6F",
"z 	c #5D666B",
"A 	c #676F74",
"B 	c #979EA4",
"C 	c #3A80CD",
"D 	c #1F7DD6",
"E 	c #1F81D8",
"F 	c #1F85DA",
"G 	c #208EDD",
"H 	c #329AE2",
"I 	c #44A6E6",
"J 	c #8DC0DF",
"K 	c #9FA0A0",
"L 	c #626B70",
"M 	c #6B747B",
"N 	c #597CA0",
"O 	c #5186B8",
"P 	c #428CCD",
"Q 	c #308EDC",
"R 	c #238CDC",
"S 	c #2C98E1",
"T 	c #4EABE7",
"U 	c #68B9EB",
"V 	c #A4C5D9",
"W 	c #565D61",
"X 	c #60696F",
"Y 	c #657C8C",
"Z 	c #618BA8",
"` 	c #619CC2",
" .	c #72B3DB",
"..	c #8BCAEF",
"+.	c #9CB2BE",
"@.	c #9C9FA0",
"#.	c #878B8C",
"$.	c #646B70",
"%.	c #5D6569",
"&.	c #5A6064",
"*.	c #657073",
"=.	c #769E7D",
"-.	c #666F75",
";.	c #BBBEC0",
">.	c #D4D6D7",
",.	c #BABCBE",
"'.	c #96999A",
").	c #838587",
"!.	c #676A6D",
"~.	c #5D5E5F",
"{.	c #4A5056",
"].	c #E2E8F1",
"^.	c #C0CDDE",
"/.	c #9FB0C6",
"(.	c #849AB2",
"_.	c #768DA4",
":.	c #6B8195",
"<.	c #6E8192",
"[.	c #6E7E8B",
"}.	c #7A868E",
"|.	c #9A9D9F",
"1.	c #A6AAAC",
"2.	c #A0A4A7",
"3.	c #93989A",
"4.	c #898E91",
"5.	c #818588",
"6.	c #66696A",
"7.	c #7F868E",
"8.	c #DFE9F7",
"9.	c #CADBF3",
"0.	c #90B7E7",
"a.	c #629BDE",
"b.	c #5394DD",
"c.	c #4991DC",
"d.	c #3F8DD9",
"e.	c #3689D3",
"f.	c #3285C9",
"g.	c #5C6D78",
"h.	c #7C7E7F",
"i.	c #808384",
"j.	c #7F8284",
"k.	c #717678",
"l.	c #676B6D",
"m.	c #B5BFCA",
"n.	c #B1CBEE",
"o.	c #5B94DC",
"p.	c #74A6E2",
"q.	c #82B1E6",
"r.	c #70A9E3",
"s.	c #599EE1",
"t.	c #4596DE",
"u.	c #328FDD",
"v.	c #3191DB",
"w.	c #4A5359",
"x.	c #A1B8D6",
"y.	c #669BDE",
"z.	c #9EC1EB",
"A.	c #68A2E1",
"B.	c #4690DC",
"C.	c #368ADA",
"D.	c #308ADB",
"E.	c #2C8CDC",
"F.	c #268DDD",
"G.	c #3791D2",
"H.	c #4F5559",
"I.	c #6992C6",
"J.	c #82B0E5",
"K.	c #2B7CD5",
"L.	c #1F79D4",
"M.	c #1F86DA",
"N.	c #1F8ADC",
"O.	c #1F8EDD",
"P.	c #4C9CD3",
"Q.	c #7E8387",
"R.	c #6999CF",
"S.	c #2176D3",
"T.	c #1F82D8",
"U.	c #218FDE",
"V.	c #2997E1",
"W.	c #70B1DC",
"X.	c #A0A3A5",
"Y.	c #89949D",
"Z.	c #307DD0",
"`.	c #207AD5",
" +	c #1F7ED6",
".+	c #2290DE",
"++	c #3B9FE3",
"@+	c #4DABE7",
"#+	c #99C4DF",
"$+	c #969798",
"%+	c #5F676C",
"&+	c #5F7180",
"*+	c #5E7F9D",
"=+	c #5488B5",
"-+	c #468FCB",
";+	c #3493DC",
">+	c #2592DF",
",+	c #329BE2",
"'+	c #55AFE8",
")+	c #71BEED",
"!+	c #A6C2D2",
"~+	c #60666A",
"{+	c #646C71",
"]+	c #667A87",
"^+	c #6C8FA5",
"/+	c #78A6C1",
"(+	c #8EBFDA",
"_+	c #95A7B0",
":+	c #B4B5B6",
"<+	c #9B9D9F",
"[+	c #73797D",
"}+	c #62696E",
"|+	c #52595D",
"1+	c #596062",
"2+	c #5D8160",
"3+	c #AFB3B5",
"4+	c #C8CBCC",
"5+	c #B6B9BB",
"6+	c #96999B",
"7+	c #86888A",
"8+	c #707274",
"9+	c #616364",
"0+	c #949798",
"a+	c #A7ABAD",
"b+	c #9DA1A3",
"c+	c #94999B",
"d+	c #8A8F92",
"e+	c #83888A",
"f+	c #5D6062",
"g+	c #717374",
"h+	c #737678",
"i+	c #65696B",
"                                                ",
"  . + @ # $ % & *                               ",
"  = - ; > , ' ) ! ~ { ]                         ",
"  ^ / ( _ : < [ } | 1 2                         ",
"  3 4 5 6 7 8 9 0 a b c                         ",
"  d e f g h i j k l m n                         ",
"  o p q h r s t u v w x y z z z z z A           ",
"B C q D E F t G H I J K             L           ",
"M N O P Q R u S T U V               L           ",
"      W X Y Z `  ...+.              L           ",
"        @.#.$.%.&.*.=.              -.          ",
"      ;.>.,.'.).!.~.    {.].^./.(._.:.<.[.}.    ",
"      |.1.2.3.4.5.6.    7.8.9.0.a.b.c.d.e.f.g.  ",
"        h.i.j.k.l.      m.n.o.p.q.r.s.t.u.v.w.  ",
"                        x.y.z.A.B.C.D.E.F.G.H.  ",
"                        I.J.K.L.D E M.N.O.P.Q.  ",
"                        R.S.L.D T.M.N.U.V.W.X.  ",
"                      Y.Z.`. +T.M.N..+++@+#+$+  ",
"                      %+&+*+=+-+;+>+,+'+)+!+    ",
"                              ~+{+]+^+/+(+_+    ",
"                              :+<+[+}+|+1+2+    ",
"                            3+4+5+6+7+8+9+      ",
"                            0+a+b+c+d+e+f+      ",
"                                g+h+i+          "};
