/* XPM */
static char * spam_icon_24_xpm[] = {
"24 24 277 2",
"  	c None",
". 	c #B99310",
"+ 	c #BF9914",
"@ 	c #BE9814",
"# 	c #B99410",
"$ 	c #BB9C27",
"% 	c #EDCF59",
"& 	c #F5D962",
"* 	c #F5D861",
"= 	c #F5D961",
"- 	c #C1A127",
"; 	c #CEB33E",
"> 	c #F1E59F",
", 	c #FDF5B9",
"' 	c #FDF4B8",
") 	c #FCF4B8",
"! 	c #FDF4B7",
"~ 	c #FDF5B8",
"{ 	c #F2E69F",
"] 	c #CFB43E",
"^ 	c #E3C143",
"/ 	c #EFCF63",
"( 	c #E6C232",
"_ 	c #E5C12E",
": 	c #E5C22E",
"< 	c #E6C22E",
"[ 	c #E8C43C",
"} 	c #F1D268",
"| 	c #E3C041",
"1 	c #66672D",
"2 	c #677854",
"3 	c #656C48",
"4 	c #64623B",
"5 	c #63633C",
"6 	c #64633B",
"7 	c #65633B",
"8 	c #646E4A",
"9 	c #6B7C54",
"0 	c #67672C",
"a 	c #093555",
"b 	c #16649F",
"c 	c #14518A",
"d 	c #0D3872",
"e 	c #0A3774",
"f 	c #0D3A73",
"g 	c #103B72",
"h 	c #0C3973",
"i 	c #093774",
"j 	c #0C3974",
"k 	c #123D73",
"l 	c #103C73",
"m 	c #0E3A73",
"n 	c #133E73",
"o 	c #0F3B73",
"p 	c #0D3871",
"q 	c #12548E",
"r 	c #1665A0",
"s 	c #093454",
"t 	c #0F3750",
"u 	c #1D6698",
"v 	c #3B6A7F",
"w 	c #CFC24F",
"x 	c #C9C14D",
"y 	c #CCBC52",
"z 	c #657363",
"A 	c #DECF4D",
"B 	c #C6BD4E",
"C 	c #DBCA4E",
"D 	c #476167",
"E 	c #7F885F",
"F 	c #E7D34C",
"G 	c #425D68",
"H 	c #3B5869",
"I 	c #E1CE4D",
"J 	c #999A59",
"K 	c #596D64",
"L 	c #FEE346",
"M 	c #4A7B80",
"N 	c #1C679A",
"O 	c #0F364F",
"P 	c #477481",
"Q 	c #E0CF61",
"R 	c #858D6C",
"S 	c #9C9A65",
"T 	c #657568",
"U 	c #E0D162",
"V 	c #40586F",
"W 	c #C8C064",
"X 	c #6D7E68",
"Y 	c #CABB65",
"Z 	c #D6C761",
"` 	c #868D69",
" .	c #35546C",
"..	c #E2CC62",
"+.	c #CFBE65",
"@.	c #8E9268",
"#.	c #FEE45E",
"$.	c #467886",
"%.	c #1C6799",
"&.	c #1D6697",
"*.	c #285D84",
"=.	c #74806D",
"-.	c #A5A371",
";.	c #CEC777",
">.	c #878D73",
",.	c #DFD376",
"'.	c #B6AE75",
").	c #BAB273",
"!.	c #6A7A70",
"~.	c #E2D377",
"{.	c #BCB376",
"].	c #E7D077",
"^.	c #334F6E",
"/.	c #C6B874",
"(.	c #E9D377",
"_.	c #D5C376",
":.	c #E6D574",
"<.	c #46798A",
"[.	c #47788B",
"}.	c #C1C588",
"|.	c #56737B",
"1.	c #E3D28D",
"2.	c #989A80",
"3.	c #DFDC8E",
"4.	c #06336B",
"5.	c #0A366B",
"6.	c #B3B387",
"7.	c #C4B984",
"8.	c #9C9D7D",
"9.	c #E5DD8D",
"0.	c #878F7E",
"a.	c #ABA984",
"b.	c #CFC288",
"c.	c #D9D18C",
"d.	c #B4B985",
"e.	c #487E90",
"f.	c #285D86",
"g.	c #72857F",
"h.	c #859B87",
"i.	c #718580",
"j.	c #3A5873",
"k.	c #758B82",
"l.	c #133D6C",
"m.	c #153E6C",
"n.	c #6A8481",
"o.	c #335473",
"p.	c #0D386B",
"q.	c #687B7E",
"r.	c #5A6F7B",
"s.	c #63767C",
"t.	c #5C707B",
"u.	c #6D827F",
"v.	c #55717A",
"w.	c #316B8E",
"x.	c #1D6899",
"y.	c #1E6797",
"z.	c #1C5584",
"A.	c #183F6B",
"B.	c #143D6D",
"C.	c #113C6E",
"D.	c #0D396F",
"E.	c #0D3971",
"F.	c #0C3970",
"G.	c #093670",
"H.	c #0A3770",
"I.	c #0C3870",
"J.	c #0A376F",
"K.	c #0D386F",
"L.	c #103B6E",
"M.	c #143D6E",
"N.	c #173F6D",
"O.	c #193F6B",
"P.	c #1C5988",
"Q.	c #1E6899",
"R.	c #1E6798",
"S.	c #1B5485",
"T.	c #20456C",
"U.	c #345269",
"V.	c #5E6D61",
"W.	c #979355",
"X.	c #C8B34B",
"Y.	c #F6D242",
"Z.	c #FBD740",
"`.	c #5D6D60",
" +	c #20446B",
".+	c #1B5989",
"++	c #1D6798",
"@+	c #2F6081",
"#+	c #968B53",
"$+	c #CFB04A",
"%+	c #F9CB41",
"&+	c #F5C842",
"*+	c #F2C643",
"=+	c #F0C544",
"-+	c #EFC443",
";+	c #EFC444",
">+	c #EEC343",
",+	c #F0C443",
"'+	c #F8CB41",
")+	c #2F6485",
"!+	c #3C667E",
"~+	c #C2A14C",
"{+	c #DEB34A",
"]+	c #F6C048",
"^+	c #F3BF48",
"/+	c #F2BE48",
"(+	c #F3BE48",
"_+	c #F5C047",
":+	c #DEB44A",
"<+	c #3C6B82",
"[+	c #165287",
"}+	c #334355",
"|+	c #7B5921",
"1+	c #9F6809",
"2+	c #A56A05",
"3+	c #A56A06",
"4+	c #334354",
"5+	c #16578B",
"6+	c #205985",
"7+	c #786440",
"8+	c #A1590E",
"9+	c #8A3D08",
"0+	c #873907",
"a+	c #883A07",
"b+	c #78643F",
"c+	c #205D89",
"d+	c #44707C",
"e+	c #E5C040",
"f+	c #E6B53B",
"g+	c #DBA838",
"h+	c #DAA638",
"i+	c #437481",
"j+	c #0D3651",
"k+	c #1B6699",
"l+	c #265A82",
"m+	c #72725B",
"n+	c #A69152",
"o+	c #C0A24C",
"p+	c #C0A24D",
"q+	c #72725A",
"r+	c #265F86",
"s+	c #1B679A",
"t+	c #0D3550",
"u+	c #1A3842",
"v+	c #186192",
"w+	c #0E4B82",
"x+	c #0A356A",
"y+	c #07346C",
"z+	c #05336D",
"A+	c #04336C",
"B+	c #05336C",
"C+	c #0A3569",
"D+	c #0E5087",
"E+	c #186394",
"F+	c #1A3841",
"G+	c #B69F3B",
"H+	c #C4D1AE",
"I+	c #C1D0BA",
"J+	c #C0CBB5",
"K+	c #C0CBB4",
"L+	c #C0D1BA",
"M+	c #C4D2AE",
"N+	c #B59F3B",
"O+	c #E1C043",
"P+	c #EBCE64",
"Q+	c #E3C133",
"R+	c #E2C02F",
"S+	c #E3C02F",
"T+	c #E5C33D",
"U+	c #EED169",
"V+	c #E0BF42",
"W+	c #614D00",
"X+	c #5A4500",
"Y+	c #564100",
"Z+	c #564200",
"`+	c #5E4900",
" @	c #624D00",
"      . + @ + @ @ + @ + @ @ @ + @ @ + + #       ",
"    $ % & * = * * = * = * * * = * * = & % -     ",
"  ; > , ' ) ' ) ) ' ) ' ) ) ) ' ) ) ' ! ~ { ]   ",
"  ^ / ( _ : < : : < : < : : : < : : < _ [ } |   ",
"  1 2 3 4 5 6 6 6 5 5 6 6 6 6 7 6 6 6 4 8 9 0   ",
"  a b c d e f g h i j k l m n n m o l p q r s   ",
"  t u v w x y z A B C D E F G H I J K L M N O   ",
"  t u P Q R S T U V W X Y Z `  ...+.@.#.$.%.O   ",
"  t &.*.=.-.;.>.,.'.).!.~.{.].^./.(._.:.<.%.O   ",
"  t &.[.}.|.1.2.3.4.5.6.7.8.9.0.a.b.c.d.e.%.O   ",
"  t &.f.g.h.i.j.k.l.m.n.o.p.q.r.s.t.u.v.w.x.O   ",
"  t y.z.A.m.B.C.D.E.F.G.H.I.J.K.L.M.N.O.P.Q.O   ",
"  t R.S.T.U.V.W.X.Y.Z.Z.Z.Z.Y.X.W.`.U. +.+Q.O   ",
"  t ++@+#+$+%+&+*+=+-+;+>+-+,+*+&+'+$+#+)+x.O   ",
"  t ++!+~+{+]+^+/+(+/+/+/+/+/+^+^+_+:+~+<+x.O   ",
"  t y.[+}+|+1+2+2+3+2+3+2+2+2+3+2+1+|+4+5+Q.O   ",
"  t R.6+7+8+9+0+a+a+a+a+a+a+a+a+0+9+8+b+c+Q.O   ",
"  t u d+e+f+g+h+h+h+h+h+h+h+h+h+h+g+f+e+i+x.O   ",
"  j+k+l+m+n+o+o+o+p+o+p+o+o+o+p+o+o+n+q+r+s+t+  ",
"  u+v+w+x+y+z+A+B+z+A+z+A+A+B+z+A+B+y+C+D+E+F+  ",
"  G+H+I+J+J+J+J+J+J+J+J+J+J+J+J+J+J+J+K+L+M+N+  ",
"  O+P+Q+R+R+S+R+R+S+R+S+R+R+R+S+R+R+S+R+T+U+V+  ",
"  W+X+Y+Z+Z+Z+Z+Z+Z+Z+Z+Z+Z+Z+Z+Z+Z+Z+Z+Z+`+ @  ",
"                                                "};
