/* XPM */
static char * sun_rain_icon_24_xpm[] = {
"24 24 183 2",
"  	c None",
". 	c #F7931F",
"+ 	c #F7911E",
"@ 	c #F69F33",
"# 	c #FECC7C",
"$ 	c #FAA53A",
"% 	c #F49729",
"& 	c #D78523",
"* 	c #C4761C",
"= 	c #FFD284",
"- 	c #FEC873",
"; 	c #FECB7A",
"> 	c #FFE799",
", 	c #FFD991",
"' 	c #FEC067",
") 	c #FFDE97",
"! 	c #E18C28",
"~ 	c #F19D37",
"{ 	c #FED168",
"] 	c #FFE08B",
"^ 	c #FEDC80",
"/ 	c #FECC47",
"( 	c #FFD86F",
"_ 	c #FEE18E",
": 	c #FFDA6C",
"< 	c #F9B049",
"[ 	c #E98815",
"} 	c #F5921F",
"| 	c #FFC66B",
"1 	c #FECE78",
"2 	c #FEC94D",
"3 	c #FFC63F",
"4 	c #FEC743",
"5 	c #FEC63E",
"6 	c #FDC73E",
"7 	c #DEC25B",
"8 	c #A7B883",
"9 	c #9EB6A5",
"0 	c #A1A88B",
"a 	c #BEA165",
"b 	c #C87111",
"c 	c #FFD26D",
"d 	c #FFCB5A",
"e 	c #FFC341",
"f 	c #FFC23D",
"g 	c #FFC23C",
"h 	c #FFC237",
"i 	c #C2B873",
"j 	c #8FBECD",
"k 	c #C3E1F4",
"l 	c #CEE8F9",
"m 	c #D0E9F9",
"n 	c #AED3E7",
"o 	c #5088A4",
"p 	c #CC7615",
"q 	c #FFB335",
"r 	c #FEBB36",
"s 	c #FEBB38",
"t 	c #FFBC38",
"u 	c #FEBB34",
"v 	c #E3B74E",
"w 	c #88C5ED",
"x 	c #DEF3FD",
"y 	c #B9E6FA",
"z 	c #A2DDF9",
"A 	c #A8DFF9",
"B 	c #D3F0FC",
"C 	c #C5E4F4",
"D 	c #5496BD",
"E 	c #F58F1B",
"F 	c #FEB246",
"G 	c #FFC151",
"H 	c #FEB632",
"I 	c #FEB631",
"J 	c #FFB62C",
"K 	c #FEB524",
"L 	c #8EAC9A",
"M 	c #BBE4FC",
"N 	c #9CDAF9",
"O 	c #8CD4F7",
"P 	c #8DD4F6",
"Q 	c #8CD4F6",
"R 	c #8DD5F7",
"S 	c #B6E3F9",
"T 	c #8BC3E4",
"U 	c #C97414",
"V 	c #FEA531",
"W 	c #FFB435",
"X 	c #FFB12B",
"Y 	c #F2AF39",
"Z 	c #8DAC9E",
"` 	c #72A9B4",
" .	c #63AED7",
"..	c #AAE1FA",
"+.	c #89D3F6",
"@.	c #8BD4F6",
"#.	c #8AD4F6",
"$.	c #95D9F8",
"%.	c #87C7EA",
"&.	c #BA680E",
"*.	c #FFA423",
"=.	c #E5AA41",
"-.	c #7AAFC4",
";.	c #A7DCF9",
">.	c #C4EBFC",
",.	c #C5EAFC",
"'.	c #86D1F4",
").	c #87D1F4",
"!.	c #8BD3F5",
"~.	c #7FC5EA",
"{.	c #64ADD8",
"].	c #73B9E1",
"^.	c #6CB4DE",
"/.	c #D77A0E",
"(.	c #FFA61E",
"_.	c #AFA673",
":.	c #8ECCEF",
"<.	c #97D9F8",
"[.	c #87D2F5",
"}.	c #88D2F4",
"|.	c #80CFF4",
"1.	c #82CFF3",
"2.	c #82CFF4",
"3.	c #84D0F4",
"4.	c #96D5F4",
"5.	c #A0D6F3",
"6.	c #ACE1F9",
"7.	c #A6DBF6",
"8.	c #69B3DD",
"9.	c #DA9335",
"0.	c #7CA8B0",
"a.	c #6BACCC",
"b.	c #85CEF3",
"c.	c #7CCDF3",
"d.	c #7DCDF3",
"e.	c #7ECDF3",
"f.	c #85D0F4",
"g.	c #7FCEF3",
"h.	c #89D2F5",
"i.	c #65B2DE",
"j.	c #4888AD",
"k.	c #438AB5",
"l.	c #87D3F8",
"m.	c #8ED5F7",
"n.	c #7ECEF2",
"o.	c #79CBF2",
"p.	c #79CBF1",
"q.	c #78CBF2",
"r.	c #7BCCF2",
"s.	c #8AD3F4",
"t.	c #8ED5F5",
"u.	c #72BEE6",
"v.	c #4F92B9",
"w.	c #78CCF3",
"x.	c #77CBF3",
"y.	c #75CAF2",
"z.	c #74CAF2",
"A.	c #75CAF1",
"B.	c #76CAF2",
"C.	c #6ABBE5",
"D.	c #36647F",
"E.	c #61B2DF",
"F.	c #62B2DF",
"G.	c #60B2E1",
"H.	c #5CB3E6",
"I.	c #5FB3E2",
"J.	c #4E90B6",
"K.	c #5196BD",
"L.	c #4987AB",
"M.	c #5095BC",
"N.	c #539AC3",
"O.	c #5094BB",
"P.	c #5AA6D3",
"Q.	c #4A89AD",
"R.	c #5094BC",
"S.	c #5DACDA",
"T.	c #4782A5",
"U.	c #569FCA",
"V.	c #2E566D",
"W.	c #57A0CB",
"X.	c #2F566D",
"Y.	c #2E556C",
"Z.	c #5297BF",
"                .                               ",
"          +   @ # $   % &                       ",
"        * = - ; > , ' ) !                       ",
"        ~ { ] ^ / ( _ : < [                     ",
"    } | 1 2 3 4 5 6 7 8 9 0 a                   ",
"    b c d e f g h i j k l m n o                 ",
"    p q r s t u v w x y z A B C D               ",
"  E F G H I J K L M N O P Q R S T               ",
"  U V W X Y Z `  ...+.@.@.@.#.$.%.              ",
"    &.*.=.-.;.>.,.+.'.).'.'.'.!.~.{.].^.        ",
"    /.(._.:.<.[.}.|.1.2.1.1.1.3.4.5.6.7.8.      ",
"    9.0.a.b.c.c.d.d.d.e.d.d.d.d.1.f.g.h.i.j.    ",
"    k.l.m.n.o.p.p.o.p.o.p.p.p.o.p.p.q.r.s.t.u.  ",
"    v.w.x.y.y.y.z.y.A.y.A.A.A.y.A.A.y.A.B.x.C.  ",
"    D.E.F.F.F.G.H.I.E.F.F.F.F.F.F.F.F.F.F.F.J.  ",
"                                                ",
"        K.            L.              M.        ",
"      N.O.            P.            Q.R.        ",
"      S.T.          U.S.            S.T.        ",
"      V.      W.    X.Y.    Z.      V.          ",
"            N.O.            P.                  ",
"            S.T.          U.S.                  ",
"            V.            X.Y.                  ",
"                                                "};
