/* XPM */
static char * thermometer_icon_24_xpm[] = {
"24 24 167 2",
"  	c None",
". 	c #B6C4D6",
"+ 	c #B2C4DB",
"@ 	c #ABBED9",
"# 	c #A0B4CF",
"$ 	c #99ACC6",
"% 	c #AEC3DF",
"& 	c #F6F9FD",
"* 	c #F2F6FC",
"= 	c #E8EFF8",
"- 	c #D8E3F0",
"; 	c #C2D2E7",
"> 	c #ABBFDB",
", 	c #A4B8D3",
"' 	c #9CAFCA",
") 	c #98AAC3",
"! 	c #AFC3DF",
"~ 	c #F3F7FC",
"{ 	c #EDF3FB",
"] 	c #D2DEEF",
"^ 	c #C0D0E7",
"/ 	c #EDF3F9",
"( 	c #DFE8F3",
"_ 	c #CBD8EB",
": 	c #B9CBE4",
"< 	c #A7BCD7",
"[ 	c #ECF2FA",
"} 	c #D6E1F0",
"| 	c #ACBDD6",
"1 	c #C7D6EB",
"2 	c #ECF3FB",
"3 	c #EEF4FB",
"4 	c #EDF3FA",
"5 	c #DDE6F2",
"6 	c #ADC2DF",
"7 	c #9CAFC9",
"8 	c #EDF2F8",
"9 	c #C8D3E1",
"0 	c #D3DDE9",
"a 	c #D8E3F1",
"b 	c #ACBDD4",
"c 	c #C0D1E7",
"d 	c #EBF2FB",
"e 	c #E3EAF5",
"f 	c #F1F5FB",
"g 	c #E8F0F9",
"h 	c #CFDCED",
"i 	c #D8E2F1",
"j 	c #BECFE6",
"k 	c #E0E8F3",
"l 	c #E9F0F9",
"m 	c #E9F1FA",
"n 	c #E2EAF5",
"o 	c #F0F4FB",
"p 	c #E7EFF9",
"q 	c #D7E2F0",
"r 	c #BECFE7",
"s 	c #C3D0E4",
"t 	c #C6D1E1",
"u 	c #E6EEF8",
"v 	c #EBF0F8",
"w 	c #D6E0ED",
"x 	c #E5EDF8",
"y 	c #D8DFED",
"z 	c #C4D4EA",
"A 	c #E6EEF9",
"B 	c #E1E9F4",
"C 	c #EDF2FA",
"D 	c #D2DCEB",
"E 	c #BECDE1",
"F 	c #F3AFA5",
"G 	c #D87063",
"H 	c #E1CFD6",
"I 	c #E4ECF8",
"J 	c #E4EDF8",
"K 	c #E0E9F4",
"L 	c #E1EAF7",
"M 	c #F2AEA5",
"N 	c #EC4D31",
"O 	c #E2B9BA",
"P 	c #BBCADF",
"Q 	c #CCD7E6",
"R 	c #DFE8F4",
"S 	c #E7EEF7",
"T 	c #D1DCEC",
"U 	c #DFE9F6",
"V 	c #F2ADA5",
"W 	c #E7BEBF",
"X 	c #E0E9F6",
"Y 	c #DFE7F4",
"Z 	c #AFC3E0",
"` 	c #E1E9F6",
" .	c #C8D5E7",
"..	c #BCCAE0",
"+.	c #F1ADA5",
"@.	c #E5BDBE",
"#.	c #DEE8F6",
"$.	c #DEE7F3",
"%.	c #DFE8F5",
"&.	c #CCDBF0",
"*.	c #CFDDF1",
"=.	c #EDAAA3",
"-.	c #DDB5B9",
";.	c #B8C8DE",
">.	c #C7D3E5",
",.	c #DBE6F5",
"'.	c #DDE6F3",
").	c #DBE5F2",
"!.	c #B5C5DB",
"~.	c #BDCCE2",
"{.	c #EAA8A2",
"].	c #D9B4BA",
"^.	c #CEDDF0",
"/.	c #C8D7EB",
"(.	c #D1DEF1",
"_.	c #DAE4F2",
":.	c #CBDAEF",
"<.	c #C7D5EA",
"[.	c #EC958B",
"}.	c #EC4729",
"|.	c #D5B0B7",
"1.	c #C5D4EA",
"2.	c #D7E2F1",
"3.	c #DE9F9F",
"4.	c #FCBFB4",
"5.	c #FA593B",
"6.	c #E57C70",
"7.	c #B6C6DE",
"8.	c #B5C4DB",
"9.	c #CAD9EE",
"0.	c #EE988D",
"a.	c #FDA595",
"b.	c #EA3414",
"c.	c #EF3615",
"d.	c #D9AEB3",
"e.	c #E4918B",
"f.	c #EE3312",
"g.	c #DB270A",
"h.	c #F56247",
"i.	c #E58D85",
"j.	c #D6E2F3",
"k.	c #D6D2DF",
"l.	c #F2553A",
"m.	c #F95738",
"n.	c #FD927E",
"o.	c #E09D9C",
"p.	c #BBCDE5",
"q.	c #CAD7EB",
"r.	c #E9DCE1",
"s.	c #EDA097",
"t.	c #EB9C94",
"u.	c #D7DCEB",
"v.	c #D2DFF1",
"w.	c #D0DDF1",
"x.	c #B0C4E0",
"y.	c #B7C9E3",
"z.	c #C6D5E9",
"A.	c #ECF1F9",
"B.	c #E7EEF8",
"C.	c #E2EAF6",
"D.	c #B5C8E2",
"E.	c #C3D2E7",
"F.	c #D8E2F0",
"G.	c #DFE6F1",
"H.	c #A2B6D1",
"I.	c #9BAEC8",
"J.	c #AEC2DE",
"                                                ",
"            . + @ # $                           ",
"          % & * = - ; > , ' )                   ",
"          ! ~ { { ] ^ / ( _ : < #               ",
"          ! ~ [ [ } | 1 2 3 4 5 6 7             ",
"          ! 8 9 0 a b c d d d e 6 7             ",
"          ! f g h i b j k l m n 6 7             ",
"          ! o p p q b r s t u n 6 7             ",
"          ! v w x y b z A A A B 6 7             ",
"          ! C D E F G H I I J K 6 7             ",
"          ! [ L L M N O P Q L R 6 7             ",
"          ! S T U V N W X q U Y 6 7             ",
"          Z `  ...+.N @.#.#.#.$.6 7             ",
"          Z %.&.*.=.N -.;.>.,.'.6 7             ",
"          Z ).!.~.{.N ].^./.(._.6 7             ",
"          Z %.:.<.[.}.|.1.:.&.2.6 7             ",
"          Z %.&.3.4.5.6.7.8.9.2.6 7             ",
"          Z %.&.0.a.b.c.d.&.&.2.6 7             ",
"          Z %.&.e.f.g.h.i.&.&.2.6 7             ",
"          Z = j.k.l.m.n.o.&.&.2.6 7             ",
"            p.q.$.r.s.t.u.v.w.i 6 7             ",
"                x.y.z._.A.B.C.$.6 7             ",
"                      x.D.E.F.G.H.I.            ",
"                              J.                "};
