/* XPM */
static char * ubuntu_icon_circle_white_xpm[] = {
"24 24 225 2",
"  	c None",
". 	c #FB600B",
"+ 	c #FC620B",
"@ 	c #FD620C",
"# 	c #F95E0B",
"$ 	c #FE630C",
"% 	c #FE660C",
"& 	c #FF690C",
"* 	c #FE6A0D",
"= 	c #FF6B0D",
"- 	c #FE6B0D",
"; 	c #FE690C",
"> 	c #FF660C",
", 	c #F95F0B",
"' 	c #FD620B",
") 	c #FF670C",
"! 	c #FF6A0D",
"~ 	c #FF6C0D",
"{ 	c #FF6D0D",
"] 	c #FF6E0E",
"^ 	c #FE690D",
"/ 	c #FE6D0D",
"( 	c #FE8230",
"_ 	c #FE924A",
": 	c #FE6D0F",
"< 	c #FF690D",
"[ 	c #FE620B",
"} 	c #FE680C",
"| 	c #FE6B0C",
"1 	c #FE6C0C",
"2 	c #FE893C",
"3 	c #FEFBF9",
"4 	c #FEFEFE",
"5 	c #FEBE93",
"6 	c #FF6B0C",
"7 	c #FD600B",
"8 	c #FF6A0C",
"9 	c #FE802F",
"0 	c #FEB483",
"a 	c #FECFB0",
"b 	c #FED4B9",
"c 	c #FEB98C",
"d 	c #FEA66D",
"e 	c #FFFFFF",
"f 	c #FEDECA",
"g 	c #F75A09",
"h 	c #FE640B",
"i 	c #FE6A0C",
"j 	c #FE6F15",
"k 	c #FE8437",
"l 	c #FE9959",
"m 	c #FEFDFB",
"n 	c #FE8D44",
"o 	c #FEDAC3",
"p 	c #FEEEE3",
"q 	c #FE9654",
"r 	c #FF640B",
"s 	c #F85A09",
"t 	c #FE5F0A",
"u 	c #FE660B",
"v 	c #FE690B",
"w 	c #FE6E13",
"x 	c #FED9C2",
"y 	c #FEE8DA",
"z 	c #FE6D11",
"A 	c #FED7BF",
"B 	c #FEEFE6",
"C 	c #FEA872",
"D 	c #FE9C5E",
"E 	c #FE904B",
"F 	c #FF660B",
"G 	c #FF610A",
"H 	c #FF670B",
"I 	c #FF680B",
"J 	c #FEBB92",
"K 	c #FEAC79",
"L 	c #FE7825",
"M 	c #FE7B2A",
"N 	c #FE721B",
"O 	c #FE8E49",
"P 	c #FED6BD",
"Q 	c #FEF7F2",
"R 	c #FE7927",
"S 	c #F95807",
"T 	c #FE620A",
"U 	c #FE660A",
"V 	c #FE670A",
"W 	c #FE7623",
"X 	c #FEF8F4",
"Y 	c #FE8338",
"Z 	c #FEC7A6",
"` 	c #FEBF99",
" .	c #F95808",
"..	c #FB5908",
"+.	c #FE650A",
"@.	c #FE863E",
"#.	c #FEAA78",
"$.	c #FE8239",
"%.	c #FEE7D9",
"&.	c #FEB487",
"*.	c #FF650A",
"=.	c #FE6F19",
"-.	c #FEF1E9",
";.	c #FC5907",
">.	c #FE6209",
",.	c #FE7625",
"'.	c #FEFAF8",
").	c #FEE4D4",
"!.	c #FE9B60",
"~.	c #FE853E",
"{.	c #FF640A",
"].	c #FE6409",
"^.	c #FEA36E",
"/.	c #FEB88F",
"(.	c #FFB88F",
"_.	c #FE6912",
":.	c #FC5807",
"<.	c #FF6109",
"[.	c #FE8037",
"}.	c #FEF3ED",
"|.	c #FF9051",
"1.	c #FE7F36",
"2.	c #FF630A",
"3.	c #FF8A48",
"4.	c #FE660E",
"5.	c #FB5607",
"6.	c #FE5F09",
"7.	c #FEAC7D",
"8.	c #FED5BE",
"9.	c #FE9153",
"0.	c #FECEB3",
"a.	c #FEA06A",
"b.	c #FF620A",
"c.	c #FEECE2",
"d.	c #FEF9F5",
"e.	c #FE640D",
"f.	c #F75206",
"g.	c #FF5D08",
"h.	c #FF6009",
"i.	c #FE7C33",
"j.	c #FFFFFE",
"k.	c #FEE9DD",
"l.	c #FF6916",
"m.	c #FEA26F",
"n.	c #FECFB4",
"o.	c #F85206",
"p.	c #FE5A07",
"q.	c #FE5F07",
"r.	c #FF5F08",
"s.	c #FE5F08",
"t.	c #FED3BB",
"u.	c #FEB086",
"v.	c #FE6009",
"w.	c #FE630E",
"x.	c #FEA777",
"y.	c #FFFCFA",
"z.	c #FE8542",
"A.	c #FD5506",
"B.	c #FE5C07",
"C.	c #FF5E08",
"D.	c #FE5E07",
"E.	c #FE7226",
"F.	c #FEF6F1",
"G.	c #FE6D1F",
"H.	c #FEBA94",
"I.	c #FEE5D6",
"J.	c #FEDBC7",
"K.	c #FEF4EF",
"L.	c #FEFDFD",
"M.	c #FED0B7",
"N.	c #FEC3A2",
"O.	c #FEAE84",
"P.	c #FF5C07",
"Q.	c #F44D05",
"R.	c #FF5907",
"S.	c #FF5C08",
"T.	c #FE7730",
"U.	c #FE9963",
"V.	c #FE7831",
"W.	c #FEFCFA",
"X.	c #FE9862",
"Y.	c #FEA779",
"Z.	c #FEBD9A",
"`.	c #FE7126",
" +	c #F54E05",
".+	c #FC5206",
"++	c #FE8C50",
"@+	c #FEDBC9",
"#+	c #FEF8F5",
"$+	c #FEFDFC",
"%+	c #FEDFCF",
"&+	c #FE9259",
"*+	c #FED0B8",
"=+	c #FE5907",
"-+	c #FE5407",
";+	c #FE5B07",
">+	c #FF5B08",
",+	c #FE5B08",
"'+	c #FE5D0A",
")+	c #FE8D53",
"!+	c #FECCB3",
"~+	c #FE5307",
"{+	c #FF5807",
"]+	c #FF5908",
"^+	c #FF5A08",
"/+	c #FE9B6A",
"(+	c #FEB28B",
"_+	c #FE691F",
":+	c #FC5005",
"<+	c #FF5506",
"[+	c #FE5806",
"}+	c #FE5906",
"|+	c #FE5506",
"1+	c #F24A05",
"2+	c #FD5106",
"3+	c #FE5406",
"4+	c #FF5606",
"5+	c #FE5706",
"6+	c #FF5707",
"7+	c #FE5606",
"8+	c #FF5406",
"9+	c #F34A05",
"0+	c #F54B05",
"a+	c #F94E05",
"b+	c #FB4F06",
"                  . + @ @ + .                   ",
"            # $ % & * = - * ; > $ ,             ",
"          ' ) ! ~ { ] ] ] ] { ~ ! ) '           ",
"        $ ^ ~ / / { / { / / / ( _ : < $         ",
"      [ } | ~ 1 1 ~ 1 ~ 1 1 2 3 4 5 6 } [       ",
"    7 ) 8 = = = = 9 0 a b c d e e f = 8 ) 7     ",
"  g h & i i 8 j k l 4 e 4 m n o p q 8 i ; r s   ",
"  t u & v v w x y z A e 4 4 B C D E & v v F t   ",
"  G H I I I J e e K L M N O P e e Q R I I H G   ",
"S T U H V W 3 4 X Y V H V V } Z 4 4 ` V V F T  .",
"..T +.@.#.$.%.4 &.*.+.*.+.+.+.=.Q 4 -.u +.*.T ..",
";.>.,.'.4 ).!.4 ~.{.].{.].].].{.^./.(._.].{.>.;.",
":.<.[.e e }.|.e 1.2.2.2.2.2.2.2.1.3.3.4.2.2.<.:.",
"5.6.T 7.8.9.0.4 a.b.>.b.>.>.>.$ c.4 d.e.>.b.6.5.",
"f.g.h.h.h.i.j.e k.l.h.h.h.h.h.m.e e n.h.h.h.g.o.",
"  p.q.r.q.s.t.4 4 u.v.r.q.w.x.y.4 4 z.q.q.r.p.  ",
"  A.B.C.D.D.E.-.F.G.H.I.J.K.L.M.N.O.C.D.D.P.A.  ",
"  Q.R.S.g.g.g.T.U.V.W.e e e X.Y.Z.`.g.g.S.R. +  ",
"    .+R.B.B.S.B.B.++@+#+$+%+&+e 4 *+S.B.=+.+    ",
"      -+=+;+>+;+;+>+;+,+'+;+)+e 4 !+>+=+-+      ",
"        ~+{+]+^+^+^+^+^+^+^+^+/+(+_+{+~+        ",
"          :+<+[+}+R.}+R.}+}+}+R.[+|+:+          ",
"            1+2+3+4+5+6+5+5+7+8+2+9+            ",
"                  0+a+b+b+a+0+                  "};
