/* XPM */
static char * ubuntu_icon_multi_xpm[] = {
"24 24 101 2",
"  	c None",
". 	c #D81C1C",
"+ 	c #D50808",
"@ 	c #E25555",
"# 	c #F78758",
"$ 	c #F7804E",
"% 	c #F67139",
"& 	c #F77D4A",
"* 	c #E04946",
"= 	c #D30000",
"- 	c #D40000",
"; 	c #D40404",
"> 	c #F6763F",
", 	c #F44800",
"' 	c #F34700",
") 	c #F58A65",
"! 	c #E45851",
"~ 	c #D81B1B",
"{ 	c #FBAB47",
"] 	c #F44902",
"^ 	c #F66D34",
"/ 	c #E55C56",
"( 	c #E2514F",
"_ 	c #FB9F2D",
": 	c #FA8A00",
"< 	c #FBAE52",
"[ 	c #F7814E",
"} 	c #F66F36",
"| 	c #F78251",
"1 	c #F6743E",
"2 	c #F45410",
"3 	c #F5692F",
"4 	c #F48159",
"5 	c #F68155",
"6 	c #FBAE4F",
"7 	c #FB8F09",
"8 	c #F7885A",
"9 	c #F44A03",
"0 	c #F6692F",
"a 	c #FB8E07",
"b 	c #FB8B00",
"c 	c #FBA942",
"d 	c #F78C5F",
"e 	c #F88D60",
"f 	c #FB8E08",
"g 	c #F5672B",
"h 	c #F67641",
"i 	c #F56428",
"j 	c #F5662A",
"k 	c #FBAF5B",
"l 	c #FBA840",
"m 	c #F89167",
"n 	c #F55D1D",
"o 	c #F55C1C",
"p 	c #F56123",
"q 	c #F6723B",
"r 	c #FA8B00",
"s 	c #FBAB48",
"t 	c #F6743C",
"u 	c #FBA943",
"v 	c #E35B59",
"w 	c #E35C5A",
"x 	c #E66E6D",
"y 	c #F67640",
"z 	c #FBAE55",
"A 	c #FB9A22",
"B 	c #E14E4E",
"C 	c #DD3636",
"D 	c #FB8C03",
"E 	c #FBB257",
"F 	c #D50909",
"G 	c #FBA337",
"H 	c #FB900C",
"I 	c #DA2525",
"J 	c #D60C0C",
"K 	c #FB8D06",
"L 	c #FBA132",
"M 	c #E25757",
"N 	c #E15050",
"O 	c #D60E0E",
"P 	c #E56565",
"Q 	c #FCB966",
"R 	c #D71515",
"S 	c #DD3635",
"T 	c #E76A59",
"U 	c #EA7D71",
"V 	c #E35855",
"W 	c #DC302F",
"X 	c #F9AA5B",
"Y 	c #FBB055",
"Z 	c #DC3434",
"` 	c #D60F0F",
" .	c #D40202",
"..	c #D50A0A",
"+.	c #E87263",
"@.	c #F8A85A",
"#.	c #FB9414",
"$.	c #FBAD53",
"%.	c #FB8C02",
"&.	c #FB9920",
"*.	c #FCB359",
"                                                ",
"                                                ",
"                                  . + @         ",
"                      # $ % &   * = - ;         ",
"                    > , ' ' ' ) ! = - ~         ",
"                {     ] , , , ^   / (           ",
"              _ : <   [ } | 1 2 3 4   5         ",
"            6 : : 7             8 9 , ' 0       ",
"            a b b c               d , , , e     ",
"            f : 7                   g ' ' h     ",
"      i j   k : l                   m n o %     ",
"    p , ' q   r s                               ",
"    j , , t   b u                     v w x     ",
"      ^ y   z : A                   B = = C     ",
"            D b b E                 F - - @     ",
"            G : : H               I - = J       ",
"              K : L     M     N O = - - P       ",
"              Q a     R - - - - S T   U         ",
"                    V - = = = W   X Y           ",
"                    P Z `  ...+.@.: b #.        ",
"                                $.b b %.        ",
"                                  &.a *.        ",
"                                                ",
"                                                "};
